<svg id="svg" version="1.1" xmlns="http://www.w3.org/2000/svg" xmlns:xlink="http://www.w3.org/1999/xlink" width="400" height="400" viewBox="0, 0, 400,400"><g id="svgg"><path id="path0" d="M190.768 36.159 C 190.641 36.290,188.301 36.582,185.568 36.808 C 178.473 37.395,170.778 38.543,164.300 39.979 C 163.255 40.210,161.635 40.566,160.700 40.770 C 155.945 41.804,145.267 45.307,138.400 48.086 C 133.759 49.964,124.585 54.341,121.100 56.340 C 118.762 57.680,116.925 58.729,115.390 59.599 C 112.112 61.456,98.847 70.620,98.000 71.612 C 97.890 71.741,97.396 72.122,96.903 72.459 C 96.062 73.033,92.963 75.773,86.790 81.400 C 84.404 83.576,81.979 86.089,77.915 90.600 C 77.123 91.480,75.811 92.920,75.001 93.800 C 73.441 95.494,64.400 107.401,64.400 107.761 C 64.400 107.878,65.075 107.574,65.900 107.087 C 67.939 105.882,103.655 105.759,111.523 106.930 C 119.301 108.087,129.913 110.688,132.550 112.085 C 133.054 112.352,133.578 112.342,134.150 112.054 C 134.618 111.819,136.350 111.552,138.000 111.461 C 139.650 111.369,143.880 111.048,147.400 110.747 C 160.384 109.637,191.056 110.126,202.400 111.623 C 204.050 111.840,206.750 112.194,208.400 112.409 C 210.050 112.624,212.120 112.894,213.000 113.009 C 213.880 113.124,215.500 113.384,216.600 113.587 C 217.700 113.790,219.950 114.161,221.600 114.412 C 226.091 115.095,229.455 115.791,236.160 117.423 L 238.721 118.047 242.660 116.074 C 250.244 112.276,259.621 109.186,267.679 107.830 C 275.312 106.545,278.775 106.289,291.757 106.048 L 305.400 105.794 298.371 98.597 C 290.128 90.158,289.943 89.897,289.691 86.381 C 289.250 80.212,293.240 75.877,299.400 75.833 C 303.818 75.802,304.009 75.950,319.500 91.354 C 327.255 99.065,333.600 105.257,333.600 105.113 C 333.600 104.970,332.558 103.536,331.284 101.926 C 330.010 100.317,328.705 98.621,328.384 98.157 C 326.690 95.713,320.878 89.256,315.811 84.189 C 310.485 78.863,306.940 75.687,300.673 70.626 C 298.166 68.601,287.157 61.035,284.700 59.647 C 283.875 59.181,282.525 58.413,281.700 57.940 C 273.226 53.081,256.932 45.600,254.822 45.600 C 254.458 45.600,253.989 45.452,253.780 45.272 C 253.571 45.092,252.050 44.525,250.400 44.012 C 248.750 43.500,246.590 42.816,245.600 42.493 C 243.324 41.750,241.459 41.240,239.300 40.770 C 238.365 40.566,236.745 40.212,235.700 39.982 C 229.830 38.689,222.409 37.517,215.400 36.774 C 211.106 36.320,191.100 35.820,190.768 36.159 M59.512 115.000 C 59.360 115.440,58.752 116.610,58.161 117.600 C 57.570 118.590,56.723 120.030,56.279 120.800 C 52.914 126.627,47.304 139.145,45.343 145.200 C 45.022 146.190,44.607 147.360,44.420 147.800 C 43.959 148.886,43.391 150.642,42.801 152.800 C 42.530 153.790,42.163 154.960,41.985 155.400 C 41.806 155.840,41.549 156.740,41.412 157.400 C 41.276 158.060,41.000 159.230,40.800 160.000 C 37.489 172.743,36.200 183.558,36.200 198.600 C 36.200 213.457,37.212 223.528,39.960 236.000 C 40.676 239.250,41.145 241.054,42.377 245.300 C 43.069 247.681,43.653 249.790,43.876 250.706 C 43.997 251.204,44.254 251.710,44.448 251.830 C 44.641 251.949,44.800 252.451,44.800 252.944 C 44.800 253.437,44.943 254.011,45.118 254.220 C 45.293 254.429,45.665 255.320,45.945 256.200 C 46.224 257.080,46.621 258.205,46.826 258.700 C 47.032 259.195,47.363 260.005,47.561 260.500 C 49.970 266.497,54.665 276.766,55.196 277.200 C 55.331 277.310,55.749 278.030,56.125 278.800 C 58.063 282.774,66.943 296.331,70.272 300.400 C 70.542 300.730,71.626 302.091,72.681 303.425 C 79.910 312.562,88.356 320.815,99.600 329.725 C 99.930 329.986,101.370 331.065,102.800 332.122 C 104.230 333.180,105.671 334.260,106.003 334.522 C 106.335 334.785,108.135 335.974,110.003 337.165 C 115.119 340.425,116.299 341.157,117.757 341.976 C 118.490 342.388,119.520 342.967,120.045 343.262 C 120.570 343.558,121.090 343.898,121.200 344.018 C 121.758 344.625,133.171 349.919,138.600 352.089 C 142.386 353.603,152.083 356.890,156.000 357.987 C 156.990 358.264,158.160 358.638,158.600 358.818 C 159.040 358.998,159.940 359.240,160.600 359.355 C 161.260 359.470,162.700 359.761,163.800 360.000 C 164.900 360.240,166.655 360.608,167.700 360.818 C 168.745 361.028,170.545 361.390,171.700 361.623 C 185.961 364.493,213.735 364.501,227.800 361.638 C 228.900 361.414,230.790 361.047,232.000 360.822 C 233.210 360.597,235.010 360.220,236.000 359.985 C 236.990 359.749,238.520 359.400,239.400 359.208 C 245.558 357.869,259.703 352.976,266.600 349.798 C 273.323 346.701,280.572 343.028,281.200 342.400 C 281.310 342.290,281.830 341.958,282.355 341.662 C 290.051 337.329,294.522 334.272,302.600 327.817 C 308.230 323.319,309.042 322.581,316.021 315.612 C 322.810 308.833,323.574 307.982,329.308 300.800 C 334.317 294.526,340.963 284.229,345.317 276.000 C 347.532 271.814,347.819 271.238,348.712 269.200 C 349.146 268.210,349.898 266.500,350.382 265.400 C 352.000 261.728,356.022 250.969,356.812 248.200 C 357.001 247.540,357.345 246.325,357.577 245.500 C 357.810 244.675,358.195 243.325,358.433 242.500 C 358.671 241.675,358.953 240.460,359.060 239.800 C 359.167 239.140,359.410 238.240,359.600 237.800 C 359.790 237.360,360.055 236.370,360.188 235.600 C 360.321 234.830,360.588 233.390,360.781 232.400 C 364.229 214.698,364.718 198.696,362.430 178.400 C 361.938 174.034,360.517 166.463,359.240 161.400 C 359.018 160.520,358.660 159.080,358.445 158.200 C 358.229 157.320,357.871 155.970,357.649 155.200 C 357.427 154.430,357.071 153.170,356.858 152.400 C 355.718 148.277,351.340 136.750,349.109 132.000 C 346.658 126.781,342.790 119.181,342.390 118.800 C 342.275 118.690,341.735 117.741,341.190 116.691 L 340.200 114.782 339.965 117.145 C 339.602 120.796,338.573 122.081,325.863 134.761 L 314.073 146.522 318.737 148.916 C 326.468 152.885,329.426 155.485,331.891 160.480 C 337.873 172.600,331.536 186.975,318.372 191.147 C 316.459 191.754,308.227 191.727,306.428 191.109 C 305.643 190.839,300.230 188.244,294.400 185.341 C 288.570 182.439,282.450 179.439,280.800 178.676 C 275.838 176.379,273.187 175.200,272.984 175.200 C 272.878 175.200,271.938 174.822,270.896 174.360 C 268.832 173.446,267.443 172.862,266.200 172.387 C 265.760 172.219,264.681 171.764,263.802 171.376 C 259.782 169.599,245.057 164.658,238.200 162.783 C 233.679 161.547,230.458 160.706,229.600 160.537 C 229.050 160.428,228.240 160.186,227.800 159.997 C 227.360 159.809,226.460 159.560,225.800 159.445 C 221.850 158.756,220.716 158.476,220.337 158.097 C 219.655 157.415,213.560 164.691,207.180 173.800 C 205.331 176.440,203.643 178.723,203.430 178.873 C 203.216 179.022,203.482 179.231,204.021 179.336 C 204.925 179.512,208.639 180.382,212.000 181.204 C 212.770 181.393,214.030 181.723,214.800 181.939 C 215.570 182.154,217.280 182.623,218.600 182.979 C 221.249 183.696,227.235 185.470,228.800 186.003 C 235.488 188.280,241.993 190.678,246.300 192.454 C 247.700 193.031,249.154 193.612,250.300 194.054 C 250.795 194.244,251.650 194.580,252.200 194.800 C 252.750 195.020,253.605 195.356,254.100 195.546 C 256.989 196.659,262.016 198.858,276.600 205.393 C 281.124 207.420,288.200 210.974,288.333 211.287 C 288.407 211.459,288.690 211.600,288.963 211.600 C 289.575 211.600,294.000 215.871,294.000 216.463 C 294.000 216.699,294.495 216.556,295.100 216.146 C 296.748 215.028,302.025 215.104,304.200 216.276 C 307.085 217.831,338.981 250.303,339.533 252.246 C 340.315 255.002,340.119 258.003,339.013 260.224 C 337.735 262.789,306.700 293.851,304.116 295.152 C 297.505 298.480,289.785 293.758,289.810 286.400 C 289.825 282.068,290.772 280.512,297.160 274.324 C 300.042 271.532,302.400 269.086,302.400 268.887 C 302.400 268.689,298.726 268.413,294.235 268.273 C 285.146 267.990,280.406 267.408,272.400 265.592 C 264.583 263.818,252.899 258.910,246.800 254.839 C 246.250 254.472,245.327 253.934,244.749 253.644 C 243.664 253.100,237.865 248.819,234.000 245.710 C 230.222 242.670,220.561 232.982,217.429 229.095 C 216.585 228.047,215.693 227.221,215.447 227.260 C 214.931 227.341,212.967 226.886,211.800 226.414 C 211.360 226.237,210.190 225.872,209.200 225.604 C 208.210 225.336,206.987 224.955,206.481 224.758 C 205.976 224.561,205.131 224.400,204.605 224.400 C 204.078 224.400,203.536 224.220,203.400 224.000 C 203.264 223.780,202.634 223.600,202.000 223.600 C 201.366 223.600,200.751 223.444,200.633 223.254 C 200.516 223.064,199.650 222.780,198.710 222.624 C 197.769 222.468,196.145 222.174,195.100 221.970 C 186.956 220.384,184.632 219.996,181.000 219.615 C 179.240 219.431,177.170 219.172,176.400 219.040 C 175.005 218.801,174.989 218.815,171.706 223.300 C 166.580 230.301,161.559 235.956,155.738 241.283 L 153.276 243.536 162.538 243.756 C 175.169 244.057,183.283 244.896,191.600 246.761 C 192.590 246.984,194.300 247.348,195.400 247.572 C 197.277 247.954,198.968 248.381,201.800 249.187 C 202.460 249.375,204.359 249.897,206.019 250.349 C 209.176 251.206,217.133 253.879,222.600 255.919 C 228.060 257.957,227.786 257.842,236.300 261.650 C 247.262 266.552,251.771 272.711,251.787 282.800 C 251.802 291.887,247.792 298.126,239.265 302.290 L 235.531 304.113 230.265 304.131 L 225.000 304.149 221.200 302.529 C 219.110 301.638,215.780 300.246,213.800 299.437 C 211.820 298.627,209.467 297.627,208.572 297.214 C 207.677 296.801,204.077 295.527,200.572 294.382 C 197.067 293.237,193.840 292.164,193.400 291.996 C 192.643 291.708,191.521 291.400,187.800 290.463 C 186.920 290.241,185.165 289.866,183.900 289.630 C 182.635 289.393,180.655 289.024,179.500 288.809 C 173.802 287.747,159.237 286.680,154.800 287.000 C 152.930 287.134,149.060 287.423,146.200 287.640 C 128.811 288.964,125.429 288.278,119.400 282.208 C 115.258 278.037,113.626 274.407,113.310 268.656 L 113.136 265.513 111.868 265.797 C 101.249 268.182,101.793 268.135,84.000 268.169 C 65.648 268.203,66.693 268.335,63.131 265.537 C 59.073 262.347,58.863 255.199,62.715 251.347 C 65.528 248.533,66.274 248.400,79.296 248.396 C 97.621 248.389,103.581 247.628,113.967 243.964 C 119.875 241.881,129.518 236.750,133.191 233.737 C 133.526 233.462,134.955 232.323,136.366 231.206 C 139.810 228.481,147.441 221.347,148.494 219.868 L 149.340 218.679 146.770 218.934 C 144.473 219.162,142.731 219.374,136.400 220.195 C 135.410 220.323,133.655 220.602,132.500 220.814 C 131.345 221.026,129.410 221.380,128.200 221.600 C 126.990 221.820,125.018 222.207,123.818 222.460 C 121.225 223.006,116.700 222.422,113.200 221.090 C 92.365 213.160,95.197 183.551,117.200 179.256 C 118.410 179.020,119.940 178.718,120.600 178.586 C 125.348 177.632,131.184 176.828,142.800 175.525 C 147.889 174.954,172.645 174.795,176.544 175.309 L 178.887 175.617 177.386 173.509 C 170.782 164.232,160.828 153.087,159.436 153.412 C 158.976 153.519,155.630 153.799,152.000 154.033 C 142.634 154.638,137.190 155.200,129.200 156.387 C 127.770 156.599,125.340 156.960,123.800 157.189 C 120.281 157.711,116.834 158.284,114.000 158.818 C 101.532 161.167,95.229 159.643,89.069 152.792 C 82.967 146.006,81.728 133.748,86.511 127.482 L 87.490 126.200 79.699 126.324 C 64.969 126.559,60.697 124.509,60.024 116.881 C 59.871 115.146,59.690 114.482,59.512 115.000 M278.000 126.661 C 277.450 126.745,275.484 127.014,273.632 127.258 L 270.263 127.702 272.032 128.271 C 273.004 128.583,274.205 129.010,274.700 129.220 C 275.195 129.429,276.005 129.756,276.500 129.946 C 276.995 130.137,277.850 130.478,278.400 130.703 C 278.950 130.929,282.640 132.410,286.600 133.995 C 290.560 135.581,293.913 137.061,294.052 137.285 C 294.307 137.696,304.800 127.418,304.800 126.757 C 304.800 126.419,280.168 126.331,278.000 126.661 M189.858 156.500 C 192.416 159.857,192.252 159.837,194.393 157.055 L 196.282 154.600 194.841 154.323 C 194.049 154.171,192.174 154.036,190.677 154.023 L 187.953 154.000 189.858 156.500 M296.422 239.492 C 295.728 241.131,294.563 242.689,292.404 244.866 L 289.364 247.933 290.532 248.166 C 292.502 248.560,307.600 248.434,307.600 248.023 C 307.600 247.816,305.305 245.292,302.500 242.415 L 297.400 237.184 296.422 239.492 " stroke="none" fill="#84c384" fill-rule="evenodd"></path><path id="path1" d="M297.000 75.951 C 292.139 77.227,289.324 81.245,289.691 86.381 C 289.943 89.897,290.128 90.158,298.371 98.597 L 305.400 105.794 291.757 106.048 C 278.775 106.289,275.312 106.545,267.679 107.830 C 258.617 109.355,240.341 115.922,238.400 118.350 C 238.290 118.487,237.480 118.977,236.600 119.438 C 225.956 125.016,212.737 135.639,203.788 145.806 C 200.587 149.443,194.040 157.365,193.153 158.674 C 192.456 159.704,192.216 159.575,190.412 157.200 C 189.660 156.210,188.225 154.489,187.222 153.376 C 186.220 152.263,184.292 150.007,182.939 148.364 C 179.799 144.552,173.133 137.797,168.959 134.196 C 164.398 130.262,156.564 124.359,153.800 122.774 C 148.125 119.518,143.733 117.177,140.600 115.735 C 138.620 114.825,135.829 113.543,134.398 112.887 C 131.401 111.512,123.610 109.135,119.123 108.226 C 110.146 106.407,107.764 106.258,87.200 106.228 L 67.400 106.200 65.542 107.292 C 57.799 111.844,58.351 122.629,66.472 125.458 C 68.432 126.141,70.147 126.200,88.200 126.200 C 102.752 126.200,108.418 126.334,110.200 126.719 C 111.520 127.004,113.500 127.416,114.600 127.635 C 117.762 128.265,122.772 129.604,123.400 129.989 C 123.620 130.123,124.520 130.463,125.400 130.743 C 127.006 131.255,127.412 131.411,130.000 132.516 C 134.257 134.333,136.562 135.509,140.878 138.063 C 143.507 139.618,146.457 141.501,147.432 142.246 C 148.408 142.990,149.370 143.600,149.570 143.600 C 149.770 143.600,149.993 143.739,150.067 143.908 C 150.140 144.077,151.564 145.324,153.232 146.678 C 158.762 151.169,167.129 160.044,172.611 167.235 C 173.045 167.804,174.707 169.999,176.304 172.113 C 177.901 174.228,179.386 176.068,179.604 176.202 C 180.481 176.744,178.132 180.873,174.236 185.638 C 173.949 185.989,172.932 187.429,171.976 188.838 C 171.021 190.247,170.083 191.580,169.892 191.800 C 169.702 192.020,166.858 196.046,163.572 200.746 C 160.287 205.446,157.067 209.946,156.418 210.746 C 155.768 211.546,154.317 213.370,153.193 214.800 C 150.605 218.094,141.195 227.324,137.000 230.683 C 135.240 232.093,133.526 233.469,133.191 233.741 C 129.431 236.797,119.867 241.884,113.967 243.964 C 103.581 247.628,97.621 248.389,79.296 248.396 C 68.175 248.400,67.500 248.443,65.771 249.256 C 57.767 253.018,57.894 263.075,66.000 267.445 C 67.780 268.405,98.009 268.591,103.000 267.673 C 107.666 266.815,112.106 265.771,113.400 265.227 C 113.840 265.042,115.010 264.670,116.000 264.400 C 116.990 264.130,118.160 263.758,118.600 263.575 C 119.040 263.391,120.275 262.956,121.345 262.610 C 129.885 259.840,142.727 252.263,150.734 245.268 C 151.320 244.756,152.430 243.917,153.200 243.403 C 157.851 240.300,170.933 225.431,175.425 218.142 C 176.511 216.379,179.686 211.841,180.002 211.600 C 180.146 211.490,181.179 210.050,182.298 208.400 C 183.416 206.750,185.883 203.240,187.780 200.600 C 189.676 197.960,192.121 194.540,193.212 193.000 C 194.304 191.460,196.052 189.007,197.098 187.548 C 198.144 186.090,199.797 183.750,200.772 182.348 C 201.746 180.947,202.831 179.530,203.182 179.200 C 203.533 178.870,205.331 176.440,207.177 173.800 C 209.023 171.160,212.210 166.930,214.259 164.400 C 216.307 161.870,218.392 159.288,218.892 158.662 C 220.140 157.099,225.889 151.241,227.601 149.789 C 228.372 149.135,229.992 147.792,231.201 146.805 C 232.411 145.819,233.490 144.900,233.600 144.764 C 235.181 142.813,250.099 134.211,255.400 132.192 C 256.940 131.606,258.560 130.972,259.000 130.783 C 262.073 129.465,265.447 128.580,271.400 127.531 C 276.774 126.584,304.800 125.905,304.800 126.722 C 304.800 126.938,302.505 129.436,299.700 132.274 C 291.007 141.070,290.000 142.596,290.000 146.983 C 290.000 153.605,296.235 157.845,302.838 155.712 C 306.460 154.542,337.982 123.661,339.396 119.897 C 340.300 117.491,340.050 114.054,338.790 111.571 C 337.571 109.167,306.021 77.591,303.873 76.624 C 302.101 75.827,298.730 75.497,297.000 75.951 M215.984 196.913 C 215.645 197.181,214.219 199.020,212.815 201.000 C 211.412 202.980,209.788 205.230,209.207 206.000 C 205.075 211.477,204.769 213.320,207.611 215.600 C 207.748 215.710,208.605 216.880,209.515 218.200 C 219.208 232.254,227.324 240.814,239.949 250.300 C 242.012 251.850,244.172 253.355,244.749 253.644 C 245.327 253.934,246.250 254.472,246.800 254.839 C 252.899 258.910,264.583 263.818,272.400 265.592 C 280.406 267.408,285.146 267.990,294.235 268.273 C 298.726 268.413,302.400 268.689,302.400 268.887 C 302.400 269.086,300.042 271.532,297.160 274.324 C 290.772 280.512,289.825 282.068,289.810 286.400 C 289.785 293.758,297.505 298.480,304.116 295.152 C 306.700 293.851,337.735 262.789,339.013 260.224 C 340.119 258.003,340.315 255.002,339.533 252.246 C 338.986 250.323,307.035 217.779,304.301 216.362 C 297.626 212.901,290.000 217.516,290.000 225.015 C 290.000 228.470,290.933 230.352,294.472 234.041 C 296.034 235.668,299.627 239.397,302.456 242.326 C 305.285 245.255,307.600 247.846,307.600 248.084 C 307.600 248.609,284.182 248.230,282.000 247.670 C 281.230 247.472,279.610 247.089,278.400 246.819 C 276.343 246.358,272.420 245.156,270.600 244.427 C 266.794 242.904,264.619 241.941,262.000 240.619 C 256.622 237.904,255.887 237.433,249.275 232.465 C 241.727 226.792,233.040 217.578,226.400 208.203 C 217.640 195.834,217.517 195.700,215.984 196.913 " stroke="none" fill="#fafbfb" fill-rule="evenodd"></path><path id="path2" d="M179.100 0.274 C 177.175 0.361,175.600 0.604,175.600 0.816 C 175.600 1.029,174.180 1.200,172.400 1.200 C 170.533 1.200,169.200 1.367,169.200 1.600 C 169.200 1.822,168.133 2.000,166.800 2.000 C 165.467 2.000,164.400 2.178,164.400 2.400 C 164.400 2.620,163.421 2.800,162.224 2.800 C 161.027 2.800,159.936 2.980,159.800 3.200 C 159.664 3.420,158.933 3.600,158.176 3.600 C 157.419 3.600,156.800 3.780,156.800 4.000 C 156.800 4.220,156.001 4.400,155.024 4.400 C 154.047 4.400,153.136 4.580,153.000 4.800 C 152.864 5.020,152.144 5.200,151.400 5.200 C 150.656 5.200,149.936 5.380,149.800 5.600 C 149.664 5.820,149.023 6.000,148.376 6.000 C 147.729 6.000,147.200 6.180,147.200 6.400 C 147.200 6.620,146.480 6.800,145.600 6.800 C 144.720 6.800,144.000 6.980,144.000 7.200 C 144.000 7.420,143.370 7.600,142.600 7.600 C 141.830 7.600,141.200 7.780,141.200 8.000 C 141.200 8.220,140.762 8.400,140.228 8.400 C 139.241 8.400,133.177 10.177,131.905 10.839 C 131.523 11.037,130.938 11.200,130.605 11.200 C 130.272 11.200,130.000 11.380,130.000 11.600 C 130.000 11.820,129.638 12.000,129.195 12.000 C 128.752 12.000,128.032 12.180,127.595 12.400 C 127.158 12.620,126.442 12.980,126.005 13.200 C 125.568 13.420,124.938 13.600,124.605 13.600 C 124.272 13.600,124.000 13.780,124.000 14.000 C 124.000 14.220,123.640 14.400,123.200 14.400 C 122.760 14.400,122.400 14.580,122.400 14.800 C 122.400 15.020,121.860 15.200,121.200 15.200 C 120.540 15.200,120.000 15.380,120.000 15.600 C 120.000 15.820,119.640 16.000,119.200 16.000 C 118.760 16.000,118.400 16.180,118.400 16.400 C 118.400 16.620,118.040 16.800,117.600 16.800 C 117.160 16.800,116.800 16.980,116.800 17.200 C 116.800 17.420,116.361 17.600,115.824 17.600 C 115.287 17.600,114.736 17.780,114.600 18.000 C 114.464 18.220,114.003 18.400,113.576 18.400 C 113.149 18.400,112.800 18.580,112.800 18.800 C 112.800 19.020,112.440 19.200,112.000 19.200 C 111.560 19.200,111.200 19.346,111.200 19.525 C 111.200 19.704,110.570 20.098,109.800 20.400 C 109.030 20.702,108.400 21.096,108.400 21.275 C 108.400 21.454,108.040 21.600,107.600 21.600 C 107.160 21.600,106.800 21.780,106.800 22.000 C 106.800 22.220,106.440 22.400,106.000 22.400 C 105.560 22.400,105.200 22.580,105.200 22.800 C 105.200 23.020,104.880 23.200,104.488 23.200 C 104.097 23.200,103.517 23.560,103.200 24.000 C 102.883 24.440,102.374 24.800,102.070 24.800 C 101.404 24.800,95.856 27.651,95.667 28.091 C 95.593 28.261,95.278 28.400,94.967 28.400 C 94.655 28.400,94.400 28.550,94.400 28.732 C 94.400 28.915,93.905 29.319,93.300 29.630 C 92.695 29.940,91.909 30.511,91.553 30.897 C 91.197 31.284,90.652 31.600,90.341 31.600 C 90.031 31.600,89.517 31.960,89.200 32.400 C 88.883 32.840,88.375 33.200,88.072 33.200 C 87.769 33.200,87.017 33.740,86.400 34.400 C 85.783 35.060,85.031 35.600,84.728 35.600 C 84.425 35.600,83.917 35.960,83.600 36.400 C 83.283 36.840,82.743 37.200,82.400 37.200 C 82.057 37.200,81.517 37.560,81.200 38.000 C 80.883 38.440,80.420 38.800,80.171 38.800 C 79.922 38.800,79.154 39.340,78.463 40.000 C 77.772 40.660,77.108 41.200,76.987 41.200 C 76.865 41.200,76.549 41.383,76.283 41.607 C 74.444 43.159,73.837 43.600,73.546 43.600 C 73.364 43.600,72.045 44.770,70.615 46.200 C 69.185 47.630,67.825 48.800,67.592 48.800 C 67.360 48.800,65.563 50.420,63.600 52.400 C 61.637 54.380,59.814 56.000,59.549 56.000 C 59.284 56.000,59.172 56.105,59.300 56.234 C 59.634 56.567,58.326 58.002,57.919 57.750 C 57.733 57.635,57.630 57.779,57.690 58.070 C 57.751 58.362,57.575 58.555,57.300 58.500 C 57.025 58.445,56.845 58.540,56.900 58.712 C 56.955 58.884,55.155 60.858,52.900 63.098 C 50.645 65.339,48.800 67.357,48.800 67.583 C 48.800 67.810,47.720 69.092,46.400 70.432 C 45.080 71.773,44.000 73.034,44.000 73.234 C 44.000 73.434,43.370 74.266,42.600 75.082 C 41.830 75.899,41.200 76.727,41.200 76.923 C 41.200 77.119,40.660 77.783,40.000 78.400 C 39.340 79.017,38.800 79.737,38.800 80.000 C 38.800 80.263,38.260 80.983,37.600 81.600 C 36.940 82.217,36.400 82.937,36.400 83.200 C 36.400 83.463,35.860 84.183,35.200 84.800 C 34.540 85.417,34.000 86.209,34.000 86.560 C 34.000 86.912,33.850 87.200,33.668 87.200 C 33.485 87.200,33.080 87.695,32.768 88.300 C 32.455 88.905,31.885 89.749,31.500 90.175 C 31.115 90.602,30.800 91.187,30.800 91.475 C 30.800 91.764,30.620 92.000,30.400 92.000 C 30.180 92.000,30.000 92.371,30.000 92.824 C 30.000 93.277,29.836 93.546,29.635 93.421 C 29.434 93.297,29.030 93.736,28.737 94.398 C 28.444 95.059,28.069 95.600,27.902 95.600 C 27.736 95.600,27.600 95.960,27.600 96.400 C 27.600 96.840,27.453 97.200,27.274 97.200 C 27.094 97.200,26.431 98.280,25.800 99.600 C 25.169 100.920,24.506 102.000,24.326 102.000 C 24.147 102.000,24.000 102.360,24.000 102.800 C 24.000 103.240,23.820 103.600,23.600 103.600 C 23.380 103.600,23.200 103.960,23.200 104.400 C 23.200 104.840,23.020 105.200,22.800 105.200 C 22.580 105.200,22.400 105.560,22.400 106.000 C 22.400 106.440,22.220 106.800,22.000 106.800 C 21.780 106.800,21.600 107.160,21.600 107.600 C 21.600 108.040,21.420 108.400,21.200 108.400 C 20.980 108.400,20.800 108.670,20.800 109.000 C 20.800 109.330,20.620 109.600,20.400 109.600 C 20.180 109.600,20.000 109.960,20.000 110.400 C 20.000 110.840,19.820 111.200,19.600 111.200 C 19.380 111.200,19.200 111.560,19.200 112.000 C 19.200 112.440,19.020 112.800,18.800 112.800 C 18.580 112.800,18.400 113.160,18.400 113.600 C 18.400 114.040,18.220 114.400,18.000 114.400 C 17.780 114.400,17.600 114.760,17.600 115.200 C 17.600 115.640,17.420 116.000,17.200 116.000 C 16.980 116.000,16.800 116.540,16.800 117.200 C 16.800 117.860,16.620 118.400,16.400 118.400 C 16.180 118.400,16.000 118.760,16.000 119.200 C 16.000 119.640,15.820 120.000,15.600 120.000 C 15.380 120.000,15.200 120.360,15.200 120.800 C 15.200 121.240,15.020 121.600,14.800 121.600 C 14.580 121.600,14.400 121.949,14.400 122.376 C 14.400 122.803,14.220 123.264,14.000 123.400 C 13.780 123.536,13.600 124.087,13.600 124.624 C 13.600 125.161,13.420 125.600,13.200 125.600 C 12.980 125.600,12.800 126.050,12.800 126.600 C 12.800 127.150,12.620 127.600,12.400 127.600 C 12.180 127.600,12.000 127.949,12.000 128.376 C 12.000 128.803,11.820 129.264,11.600 129.400 C 11.380 129.536,11.200 130.087,11.200 130.624 C 11.200 131.161,11.020 131.600,10.800 131.600 C 10.580 131.600,10.400 132.140,10.400 132.800 C 10.400 133.460,10.220 134.000,10.000 134.000 C 9.780 134.000,9.600 134.529,9.600 135.176 C 9.600 135.823,9.404 136.474,9.165 136.622 C 8.926 136.769,8.819 137.230,8.928 137.645 C 9.036 138.060,8.962 138.500,8.762 138.623 C 8.563 138.746,8.400 139.377,8.400 140.024 C 8.400 140.671,8.220 141.200,8.000 141.200 C 7.780 141.200,7.600 141.639,7.600 142.176 C 7.600 142.713,7.420 143.264,7.200 143.400 C 6.980 143.536,6.800 144.267,6.800 145.024 C 6.800 145.781,6.620 146.400,6.400 146.400 C 6.180 146.400,6.000 147.120,6.000 148.000 C 6.000 148.880,5.820 149.600,5.600 149.600 C 5.380 149.600,5.200 150.320,5.200 151.200 C 5.200 152.080,5.020 152.800,4.800 152.800 C 4.580 152.800,4.400 153.520,4.400 154.400 C 4.400 155.280,4.220 156.000,4.000 156.000 C 3.780 156.000,3.600 156.720,3.600 157.600 C 3.600 158.480,3.420 159.200,3.200 159.200 C 2.980 159.200,2.800 160.190,2.800 161.400 C 2.800 162.610,2.620 163.600,2.400 163.600 C 2.180 163.600,2.000 164.489,2.000 165.576 C 2.000 166.663,1.820 167.664,1.600 167.800 C 1.380 167.936,1.200 169.171,1.200 170.544 C 1.200 172.007,0.993 173.247,0.700 173.540 C -0.031 174.271,-0.031 224.856,0.700 225.100 C 1.036 225.212,1.200 226.176,1.200 228.033 C 1.200 229.611,1.372 230.800,1.600 230.800 C 1.822 230.800,2.000 231.867,2.000 233.200 C 2.000 234.533,2.178 235.600,2.400 235.600 C 2.620 235.600,2.800 236.500,2.800 237.600 C 2.800 238.700,2.980 239.600,3.200 239.600 C 3.420 239.600,3.600 240.590,3.600 241.800 C 3.600 243.010,3.780 244.000,4.000 244.000 C 4.220 244.000,4.400 244.720,4.400 245.600 C 4.400 246.480,4.580 247.200,4.800 247.200 C 5.020 247.200,5.200 247.920,5.200 248.800 C 5.200 249.680,5.380 250.400,5.600 250.400 C 5.820 250.400,6.000 251.120,6.000 252.000 C 6.000 252.880,6.180 253.600,6.400 253.600 C 6.620 253.600,6.800 254.140,6.800 254.800 C 6.800 255.460,6.980 256.000,7.200 256.000 C 7.420 256.000,7.600 256.630,7.600 257.400 C 7.600 258.170,7.759 258.800,7.954 258.800 C 8.149 258.800,8.431 259.787,8.582 260.994 C 8.733 262.200,9.023 263.291,9.228 263.417 C 9.433 263.544,9.600 264.076,9.600 264.600 C 9.600 265.124,9.780 265.664,10.000 265.800 C 10.220 265.936,10.400 266.476,10.400 267.000 C 10.400 267.524,10.580 268.064,10.800 268.200 C 11.020 268.336,11.200 268.791,11.200 269.211 C 11.200 269.632,11.560 270.617,12.000 271.400 C 12.440 272.183,12.800 273.179,12.800 273.612 C 12.800 274.045,12.980 274.400,13.200 274.400 C 13.420 274.400,13.600 274.760,13.600 275.200 C 13.600 275.640,13.780 276.000,14.000 276.000 C 14.220 276.000,14.400 276.540,14.400 277.200 C 14.400 277.860,14.580 278.400,14.800 278.400 C 15.020 278.400,15.200 278.760,15.200 279.200 C 15.200 279.640,15.380 280.000,15.600 280.000 C 15.820 280.000,16.000 280.360,16.000 280.800 C 16.000 281.240,16.180 281.600,16.400 281.600 C 16.620 281.600,16.800 281.960,16.800 282.400 C 16.800 282.840,16.980 283.200,17.200 283.200 C 17.420 283.200,17.600 283.560,17.600 284.000 C 17.600 284.440,17.780 284.800,18.000 284.800 C 18.220 284.800,18.400 285.340,18.400 286.000 C 18.400 286.660,18.580 287.200,18.800 287.200 C 19.020 287.200,19.200 287.560,19.200 288.000 C 19.200 288.440,19.346 288.800,19.525 288.800 C 19.704 288.800,20.098 289.430,20.400 290.200 C 20.702 290.970,21.096 291.600,21.275 291.600 C 21.454 291.600,21.600 291.920,21.600 292.312 C 21.600 292.703,21.960 293.283,22.400 293.600 C 22.840 293.917,23.200 294.497,23.200 294.888 C 23.200 295.280,23.380 295.600,23.600 295.600 C 23.820 295.600,24.000 295.960,24.000 296.400 C 24.000 296.840,24.180 297.200,24.400 297.200 C 24.620 297.200,24.800 297.476,24.800 297.813 C 24.800 298.581,26.779 302.553,27.251 302.733 C 27.443 302.807,27.600 303.212,27.600 303.633 C 27.600 304.055,27.780 304.400,28.000 304.400 C 28.220 304.400,28.400 304.670,28.400 305.000 C 28.400 305.330,28.550 305.600,28.732 305.600 C 28.915 305.600,29.319 306.095,29.630 306.700 C 29.940 307.305,30.511 308.091,30.897 308.447 C 31.284 308.803,31.600 309.348,31.600 309.659 C 31.600 309.969,31.960 310.483,32.400 310.800 C 32.840 311.117,33.200 311.657,33.200 312.000 C 33.200 312.343,33.560 312.883,34.000 313.200 C 34.440 313.517,34.800 314.057,34.800 314.400 C 34.800 314.743,35.160 315.283,35.600 315.600 C 36.040 315.917,36.400 316.457,36.400 316.800 C 36.400 317.143,36.760 317.683,37.200 318.000 C 37.640 318.317,38.000 318.817,38.000 319.112 C 38.000 319.406,38.180 319.536,38.400 319.400 C 38.620 319.264,38.800 319.451,38.800 319.816 C 38.800 320.181,39.340 320.983,40.000 321.600 C 40.660 322.217,41.200 322.903,41.200 323.126 C 41.200 323.349,41.830 324.180,42.600 324.973 C 43.370 325.766,44.000 326.576,44.000 326.772 C 44.000 326.969,45.080 328.227,46.400 329.568 C 47.720 330.908,48.800 332.190,48.800 332.415 C 48.800 332.641,50.825 334.806,53.300 337.226 C 58.703 342.510,57.490 341.297,62.774 346.700 C 65.194 349.175,67.359 351.200,67.585 351.200 C 67.810 351.200,69.092 352.280,70.432 353.600 C 71.773 354.920,73.034 356.000,73.234 356.000 C 73.434 356.000,74.266 356.630,75.082 357.400 C 75.899 358.170,76.727 358.800,76.923 358.800 C 77.119 358.800,77.783 359.340,78.400 360.000 C 79.017 360.660,79.720 361.200,79.964 361.200 C 80.208 361.200,80.972 361.740,81.663 362.400 C 82.354 363.060,83.122 363.600,83.371 363.600 C 83.620 363.600,84.083 363.960,84.400 364.400 C 84.717 364.840,85.257 365.200,85.600 365.200 C 85.943 365.200,86.483 365.560,86.800 366.000 C 87.117 366.440,87.657 366.800,88.000 366.800 C 88.343 366.800,88.883 367.160,89.200 367.600 C 89.517 368.040,90.057 368.400,90.400 368.400 C 90.743 368.400,91.283 368.760,91.600 369.200 C 91.917 369.640,92.324 370.000,92.505 370.000 C 92.686 370.000,93.220 370.360,93.692 370.800 C 94.164 371.240,94.787 371.600,95.075 371.600 C 95.364 371.600,95.600 371.780,95.600 372.000 C 95.600 372.220,95.960 372.400,96.400 372.400 C 96.840 372.400,97.200 372.542,97.200 372.716 C 97.200 373.113,101.277 375.200,102.052 375.200 C 102.366 375.200,102.883 375.560,103.200 376.000 C 103.517 376.440,104.097 376.800,104.488 376.800 C 104.880 376.800,105.200 376.980,105.200 377.200 C 105.200 377.420,105.560 377.600,106.000 377.600 C 106.440 377.600,106.800 377.780,106.800 378.000 C 106.800 378.220,107.160 378.400,107.600 378.400 C 108.040 378.400,108.400 378.580,108.400 378.800 C 108.400 379.020,108.670 379.200,109.000 379.200 C 109.330 379.200,109.600 379.380,109.600 379.600 C 109.600 379.820,109.960 380.000,110.400 380.000 C 110.840 380.000,111.200 380.180,111.200 380.400 C 111.200 380.620,111.560 380.800,112.000 380.800 C 112.440 380.800,112.800 380.980,112.800 381.200 C 112.800 381.420,113.160 381.600,113.600 381.600 C 114.040 381.600,114.400 381.780,114.400 382.000 C 114.400 382.220,114.749 382.400,115.176 382.400 C 115.603 382.400,116.064 382.580,116.200 382.800 C 116.336 383.020,116.887 383.200,117.424 383.200 C 117.961 383.200,118.400 383.380,118.400 383.600 C 118.400 383.820,118.760 384.000,119.200 384.000 C 119.640 384.000,120.000 384.180,120.000 384.400 C 120.000 384.620,120.360 384.800,120.800 384.800 C 121.240 384.800,121.600 384.980,121.600 385.200 C 121.600 385.420,122.140 385.600,122.800 385.600 C 123.460 385.600,124.000 385.780,124.000 386.000 C 124.000 386.220,124.360 386.400,124.800 386.400 C 125.240 386.400,125.600 386.580,125.600 386.800 C 125.600 387.020,126.050 387.200,126.600 387.200 C 127.150 387.200,127.600 387.380,127.600 387.600 C 127.600 387.820,127.949 388.000,128.376 388.000 C 128.803 388.000,129.264 388.180,129.400 388.400 C 129.536 388.620,130.076 388.800,130.600 388.800 C 131.124 388.800,131.664 388.980,131.800 389.200 C 131.936 389.420,132.476 389.600,133.000 389.600 C 133.524 389.600,134.064 389.780,134.200 390.000 C 134.336 390.220,134.851 390.400,135.344 390.400 C 135.837 390.400,136.419 390.579,136.638 390.798 C 136.856 391.016,138.152 391.312,139.518 391.454 C 140.883 391.597,142.000 391.868,142.000 392.057 C 142.000 392.246,142.450 392.400,143.000 392.400 C 143.550 392.400,144.000 392.580,144.000 392.800 C 144.000 393.020,144.529 393.200,145.176 393.200 C 145.823 393.200,146.464 393.380,146.600 393.600 C 146.736 393.820,147.467 394.000,148.224 394.000 C 148.981 394.000,149.600 394.180,149.600 394.400 C 149.600 394.620,150.500 394.800,151.600 394.800 C 152.700 394.800,153.600 394.980,153.600 395.200 C 153.600 395.420,154.320 395.600,155.200 395.600 C 156.080 395.600,156.800 395.780,156.800 396.000 C 156.800 396.220,157.610 396.400,158.600 396.400 C 159.590 396.400,160.400 396.580,160.400 396.800 C 160.400 397.020,161.300 397.200,162.400 397.200 C 163.500 397.200,164.400 397.380,164.400 397.600 C 164.400 397.822,165.467 398.000,166.800 398.000 C 168.133 398.000,169.200 398.178,169.200 398.400 C 169.200 398.628,170.389 398.800,171.967 398.800 C 173.824 398.800,174.788 398.964,174.900 399.300 C 175.031 399.693,180.489 399.800,200.400 399.800 C 220.311 399.800,225.769 399.693,225.900 399.300 C 226.012 398.964,226.976 398.800,228.833 398.800 C 230.411 398.800,231.600 398.628,231.600 398.400 C 231.600 398.178,232.667 398.000,234.000 398.000 C 235.333 398.000,236.400 397.822,236.400 397.600 C 236.400 397.380,237.199 397.200,238.176 397.200 C 239.153 397.200,240.064 397.020,240.200 396.800 C 240.336 396.580,241.247 396.400,242.224 396.400 C 243.201 396.400,244.000 396.220,244.000 396.000 C 244.000 395.780,244.720 395.600,245.600 395.600 C 246.480 395.600,247.200 395.420,247.200 395.200 C 247.200 394.980,247.920 394.800,248.800 394.800 C 249.680 394.800,250.400 394.620,250.400 394.400 C 250.400 394.180,251.120 394.000,252.000 394.000 C 252.880 394.000,253.600 393.820,253.600 393.600 C 253.600 393.380,254.140 393.200,254.800 393.200 C 255.460 393.200,256.000 393.020,256.000 392.800 C 256.000 392.580,256.630 392.400,257.400 392.400 C 258.170 392.400,258.800 392.238,258.800 392.039 C 258.800 391.841,259.880 391.553,261.200 391.400 C 262.520 391.247,263.600 390.959,263.600 390.761 C 263.600 390.562,264.039 390.400,264.576 390.400 C 265.113 390.400,265.664 390.220,265.800 390.000 C 265.936 389.780,266.399 389.600,266.829 389.600 C 267.259 389.600,267.923 389.441,268.305 389.247 C 268.687 389.052,269.540 388.671,270.200 388.400 C 270.860 388.129,271.713 387.748,272.095 387.553 C 272.477 387.359,273.152 387.200,273.595 387.200 C 274.038 387.200,274.400 387.020,274.400 386.800 C 274.400 386.580,274.760 386.400,275.200 386.400 C 275.640 386.400,276.000 386.220,276.000 386.000 C 276.000 385.780,276.540 385.600,277.200 385.600 C 277.860 385.600,278.400 385.420,278.400 385.200 C 278.400 384.980,278.760 384.800,279.200 384.800 C 279.640 384.800,280.000 384.620,280.000 384.400 C 280.000 384.180,280.360 384.000,280.800 384.000 C 281.240 384.000,281.600 383.820,281.600 383.600 C 281.600 383.380,281.960 383.200,282.400 383.200 C 282.840 383.200,283.200 383.020,283.200 382.800 C 283.200 382.580,283.515 382.401,283.900 382.403 C 284.675 382.407,291.322 379.186,291.533 378.704 C 291.607 378.537,292.012 378.400,292.433 378.400 C 292.855 378.400,293.200 378.220,293.200 378.000 C 293.200 377.780,293.560 377.600,294.000 377.600 C 294.440 377.600,294.800 377.420,294.800 377.200 C 294.800 376.980,295.160 376.800,295.600 376.800 C 296.040 376.800,296.400 376.620,296.400 376.400 C 296.400 376.180,296.760 376.000,297.200 376.000 C 297.640 376.000,298.000 375.838,298.000 375.639 C 298.000 375.441,298.495 375.089,299.100 374.858 C 300.478 374.332,302.557 373.098,302.733 372.700 C 302.807 372.535,303.044 372.400,303.261 372.400 C 303.478 372.400,304.441 371.860,305.400 371.200 C 306.359 370.540,307.297 370.000,307.484 370.000 C 307.671 370.000,308.083 369.640,308.400 369.200 C 308.717 368.760,309.257 368.400,309.600 368.400 C 309.943 368.400,310.483 368.040,310.800 367.600 C 311.117 367.160,311.657 366.800,312.000 366.800 C 312.343 366.800,312.883 366.440,313.200 366.000 C 313.517 365.560,314.057 365.200,314.400 365.200 C 314.743 365.200,315.283 364.840,315.600 364.400 C 315.917 363.960,316.380 363.600,316.629 363.600 C 316.878 363.600,317.646 363.060,318.337 362.400 C 319.028 361.740,319.792 361.200,320.036 361.200 C 320.280 361.200,320.983 360.660,321.600 360.000 C 322.217 359.340,322.874 358.800,323.061 358.800 C 323.247 358.800,324.188 358.080,325.151 357.200 C 326.113 356.320,327.054 355.600,327.242 355.600 C 327.429 355.600,328.573 354.610,329.783 353.400 C 330.993 352.190,332.157 351.200,332.371 351.200 C 332.686 351.200,335.349 348.611,341.800 342.035 C 342.020 341.811,344.225 339.647,346.700 337.226 C 349.175 334.806,351.200 332.628,351.200 332.387 C 351.200 332.145,352.100 331.071,353.200 330.000 C 354.300 328.929,355.200 327.863,355.200 327.633 C 355.200 327.403,356.010 326.369,357.000 325.335 C 357.990 324.302,358.800 323.291,358.800 323.089 C 358.800 322.887,359.340 322.217,360.000 321.600 C 360.660 320.983,361.200 320.280,361.200 320.036 C 361.200 319.792,361.740 319.028,362.400 318.337 C 363.060 317.646,363.600 316.878,363.600 316.629 C 363.600 316.380,363.960 315.917,364.400 315.600 C 364.840 315.283,365.200 314.743,365.200 314.400 C 365.200 314.057,365.560 313.517,366.000 313.200 C 366.440 312.883,366.800 312.343,366.800 312.000 C 366.800 311.657,367.160 311.117,367.600 310.800 C 368.040 310.483,368.400 309.943,368.400 309.600 C 368.400 309.257,368.760 308.717,369.200 308.400 C 369.640 308.083,370.000 307.671,370.000 307.484 C 370.000 307.297,370.540 306.359,371.200 305.400 C 371.860 304.441,372.400 303.463,372.400 303.228 C 372.400 302.993,372.580 302.800,372.800 302.800 C 373.020 302.800,373.200 302.440,373.200 302.000 C 373.200 301.560,373.347 301.200,373.526 301.200 C 373.924 301.200,375.200 298.599,375.200 297.786 C 375.200 297.464,375.380 297.200,375.600 297.200 C 375.820 297.200,376.000 296.840,376.000 296.400 C 376.000 295.960,376.180 295.600,376.400 295.600 C 376.620 295.600,376.800 295.240,376.800 294.800 C 376.800 294.360,376.980 294.000,377.200 294.000 C 377.420 294.000,377.600 293.680,377.600 293.288 C 377.600 292.897,377.960 292.317,378.400 292.000 C 378.840 291.683,379.200 291.103,379.200 290.712 C 379.200 290.320,379.380 290.000,379.600 290.000 C 379.820 290.000,380.000 289.730,380.000 289.400 C 380.000 289.070,380.180 288.800,380.400 288.800 C 380.620 288.800,380.800 288.260,380.800 287.600 C 380.800 286.940,380.980 286.400,381.200 286.400 C 381.420 286.400,381.600 286.040,381.600 285.600 C 381.600 285.160,381.780 284.800,382.000 284.800 C 382.220 284.800,382.400 284.440,382.400 284.000 C 382.400 283.560,382.580 283.200,382.800 283.200 C 383.020 283.200,383.200 282.840,383.200 282.400 C 383.200 281.960,383.380 281.600,383.600 281.600 C 383.820 281.600,384.000 281.255,384.000 280.833 C 384.000 280.412,384.178 280.007,384.397 279.933 C 384.615 279.860,384.834 279.305,384.884 278.700 C 384.934 278.095,385.115 277.600,385.287 277.600 C 385.459 277.600,385.600 277.240,385.600 276.800 C 385.600 276.360,385.780 276.000,386.000 276.000 C 386.220 276.000,386.400 275.550,386.400 275.000 C 386.400 274.450,386.580 274.000,386.800 274.000 C 387.020 274.000,387.200 273.651,387.200 273.224 C 387.200 272.797,387.380 272.336,387.600 272.200 C 387.820 272.064,388.000 271.513,388.000 270.976 C 388.000 270.439,388.147 270.000,388.328 270.000 C 388.508 270.000,388.904 269.089,389.207 267.975 C 389.510 266.861,389.903 265.860,390.079 265.751 C 390.256 265.642,390.400 265.124,390.400 264.600 C 390.400 264.076,390.567 263.544,390.772 263.417 C 390.977 263.291,391.267 262.200,391.418 260.994 C 391.569 259.787,391.851 258.800,392.046 258.800 C 392.241 258.800,392.400 258.170,392.400 257.400 C 392.400 256.630,392.580 256.000,392.800 256.000 C 393.020 256.000,393.200 255.460,393.200 254.800 C 393.200 254.140,393.380 253.600,393.600 253.600 C 393.820 253.600,394.000 252.880,394.000 252.000 C 394.000 251.120,394.180 250.400,394.400 250.400 C 394.620 250.400,394.800 249.680,394.800 248.800 C 394.800 247.920,394.980 247.200,395.200 247.200 C 395.420 247.200,395.600 246.491,395.600 245.624 C 395.600 244.757,395.780 243.936,396.000 243.800 C 396.220 243.664,396.400 242.663,396.400 241.576 C 396.400 240.489,396.580 239.600,396.800 239.600 C 397.020 239.600,397.200 238.700,397.200 237.600 C 397.200 236.500,397.380 235.600,397.600 235.600 C 397.822 235.600,398.000 234.533,398.000 233.200 C 398.000 231.867,398.178 230.800,398.400 230.800 C 398.628 230.800,398.800 229.611,398.800 228.033 C 398.800 226.176,398.964 225.212,399.300 225.100 C 399.693 224.969,399.800 219.768,399.800 200.887 C 399.800 182.183,399.689 176.729,399.300 176.340 C 399.006 176.046,398.800 174.803,398.800 173.320 C 398.800 171.907,398.624 170.800,398.400 170.800 C 398.171 170.800,398.000 169.600,398.000 168.000 C 398.000 166.400,397.829 165.200,397.600 165.200 C 397.380 165.200,397.200 164.300,397.200 163.200 C 397.200 162.100,397.020 161.200,396.800 161.200 C 396.580 161.200,396.400 160.311,396.400 159.224 C 396.400 158.137,396.220 157.136,396.000 157.000 C 395.780 156.864,395.600 156.043,395.600 155.176 C 395.600 154.309,395.420 153.600,395.200 153.600 C 394.980 153.600,394.800 152.880,394.800 152.000 C 394.800 151.120,394.620 150.400,394.400 150.400 C 394.180 150.400,394.000 149.680,394.000 148.800 C 394.000 147.920,393.820 147.200,393.600 147.200 C 393.380 147.200,393.200 146.660,393.200 146.000 C 393.200 145.340,393.020 144.800,392.800 144.800 C 392.580 144.800,392.400 144.260,392.400 143.600 C 392.400 142.940,392.243 142.400,392.052 142.400 C 391.860 142.400,391.582 141.325,391.433 140.012 C 391.285 138.699,390.991 137.518,390.782 137.389 C 390.572 137.259,390.400 136.724,390.400 136.200 C 390.400 135.676,390.220 135.136,390.000 135.000 C 389.780 134.864,389.600 134.324,389.600 133.800 C 389.600 133.276,389.420 132.736,389.200 132.600 C 388.980 132.464,388.800 132.001,388.800 131.571 C 388.800 131.141,388.641 130.477,388.447 130.095 C 388.104 129.422,387.859 128.850,386.736 126.100 C 386.444 125.385,386.069 124.800,385.902 124.800 C 385.736 124.800,385.600 124.260,385.600 123.600 C 385.600 122.940,385.420 122.400,385.200 122.400 C 384.980 122.400,384.800 122.040,384.800 121.600 C 384.800 121.160,384.620 120.800,384.400 120.800 C 384.180 120.800,384.000 120.260,384.000 119.600 C 384.000 118.940,383.820 118.400,383.600 118.400 C 383.380 118.400,383.200 118.040,383.200 117.600 C 383.200 117.160,383.020 116.800,382.800 116.800 C 382.580 116.800,382.400 116.440,382.400 116.000 C 382.400 115.560,382.220 115.200,382.000 115.200 C 381.780 115.200,381.600 114.840,381.600 114.400 C 381.600 113.960,381.420 113.600,381.200 113.600 C 380.980 113.600,380.800 113.240,380.800 112.800 C 380.800 112.360,380.620 112.000,380.400 112.000 C 380.180 112.000,380.000 111.640,380.000 111.200 C 380.000 110.760,379.854 110.400,379.675 110.400 C 379.496 110.400,379.102 109.770,378.800 109.000 C 378.498 108.230,378.104 107.600,377.925 107.600 C 377.746 107.600,377.600 107.240,377.600 106.800 C 377.600 106.360,377.420 106.000,377.200 106.000 C 376.980 106.000,376.800 105.640,376.800 105.200 C 376.800 104.760,376.620 104.400,376.400 104.400 C 376.180 104.400,376.000 104.040,376.000 103.600 C 376.000 103.160,375.820 102.800,375.600 102.800 C 375.380 102.800,375.200 102.453,375.200 102.029 C 375.200 101.604,374.975 101.019,374.700 100.729 C 374.246 100.249,372.978 98.020,371.840 95.703 C 371.598 95.210,371.265 94.805,371.100 94.803 C 370.935 94.801,370.800 94.558,370.800 94.262 C 370.800 93.966,370.440 93.398,370.000 93.000 C 369.560 92.602,369.200 92.034,369.200 91.738 C 369.200 91.442,369.020 91.200,368.800 91.200 C 368.580 91.200,368.400 90.964,368.400 90.675 C 368.400 90.387,368.085 89.802,367.700 89.375 C 367.315 88.949,366.745 88.105,366.432 87.500 C 366.120 86.895,365.715 86.400,365.532 86.400 C 365.350 86.400,365.200 86.157,365.200 85.859 C 365.200 85.562,364.660 84.754,364.000 84.063 C 363.340 83.372,362.800 82.652,362.800 82.463 C 362.800 82.274,362.260 81.554,361.600 80.863 C 360.940 80.172,360.400 79.402,360.400 79.151 C 360.400 78.899,360.083 78.403,359.696 78.047 C 359.308 77.691,358.461 76.680,357.812 75.800 C 357.164 74.920,356.176 73.748,355.617 73.196 C 355.058 72.644,354.549 71.952,354.487 71.658 C 354.425 71.364,353.480 70.252,352.387 69.188 C 351.294 68.123,350.400 67.070,350.400 66.848 C 350.400 66.520,348.069 64.110,342.034 58.200 C 341.810 57.980,339.826 55.955,337.627 53.700 C 335.427 51.445,333.432 49.600,333.192 49.600 C 332.952 49.600,331.696 48.520,330.400 47.200 C 329.104 45.880,327.848 44.800,327.609 44.800 C 327.369 44.800,326.543 44.170,325.773 43.400 C 325.003 42.630,324.182 42.000,323.947 42.000 C 323.713 42.000,323.017 41.460,322.400 40.800 C 321.783 40.140,321.063 39.600,320.800 39.600 C 320.537 39.600,319.817 39.060,319.200 38.400 C 318.583 37.740,317.831 37.200,317.528 37.200 C 317.225 37.200,316.717 36.840,316.400 36.400 C 316.083 35.960,315.575 35.600,315.272 35.600 C 314.969 35.600,314.217 35.060,313.600 34.400 C 312.983 33.740,312.231 33.200,311.928 33.200 C 311.625 33.200,311.117 32.840,310.800 32.400 C 310.483 31.960,309.943 31.600,309.600 31.600 C 309.257 31.600,308.717 31.240,308.400 30.800 C 308.083 30.360,307.671 30.000,307.484 30.000 C 307.297 30.000,306.359 29.460,305.400 28.800 C 304.441 28.140,303.478 27.600,303.261 27.600 C 303.044 27.600,302.807 27.465,302.733 27.300 C 302.523 26.826,298.562 24.800,297.846 24.800 C 297.491 24.800,297.200 24.620,297.200 24.400 C 297.200 24.180,296.880 24.000,296.488 24.000 C 296.097 24.000,295.517 23.640,295.200 23.200 C 294.883 22.760,294.303 22.400,293.912 22.400 C 293.520 22.400,293.200 22.220,293.200 22.000 C 293.200 21.780,292.840 21.600,292.400 21.600 C 291.960 21.600,291.600 21.420,291.600 21.200 C 291.600 20.980,291.240 20.800,290.800 20.800 C 290.360 20.800,289.999 20.665,289.997 20.500 C 289.993 20.094,288.014 19.200,287.120 19.200 C 286.724 19.200,286.400 19.020,286.400 18.800 C 286.400 18.580,286.040 18.400,285.600 18.400 C 285.160 18.400,284.800 18.220,284.800 18.000 C 284.800 17.780,284.440 17.600,284.000 17.600 C 283.560 17.600,283.200 17.420,283.200 17.200 C 283.200 16.980,282.840 16.800,282.400 16.800 C 281.960 16.800,281.600 16.620,281.600 16.400 C 281.600 16.180,281.240 16.000,280.800 16.000 C 280.360 16.000,280.000 15.820,280.000 15.600 C 280.000 15.380,279.460 15.200,278.800 15.200 C 278.140 15.200,277.600 15.020,277.600 14.800 C 277.600 14.580,277.240 14.400,276.800 14.400 C 276.360 14.400,276.000 14.220,276.000 14.000 C 276.000 13.780,275.645 13.600,275.212 13.600 C 274.779 13.600,273.783 13.240,273.000 12.800 C 272.217 12.360,271.236 12.000,270.821 12.000 C 270.406 12.000,270.007 11.860,269.933 11.688 C 269.724 11.197,260.897 8.400,259.557 8.400 C 258.856 8.400,258.456 8.233,258.600 8.000 C 258.747 7.762,258.271 7.600,257.424 7.600 C 256.641 7.600,256.000 7.420,256.000 7.200 C 256.000 6.980,255.280 6.800,254.400 6.800 C 253.520 6.800,252.800 6.620,252.800 6.400 C 252.800 6.180,252.069 6.000,251.176 6.000 C 250.196 6.000,249.651 5.842,249.800 5.600 C 249.951 5.356,249.337 5.200,248.224 5.200 C 247.221 5.200,246.400 5.020,246.400 4.800 C 246.400 4.580,245.680 4.400,244.800 4.400 C 243.920 4.400,243.200 4.220,243.200 4.000 C 243.200 3.780,242.581 3.600,241.824 3.600 C 241.067 3.600,240.336 3.420,240.200 3.200 C 240.064 2.980,238.973 2.800,237.776 2.800 C 236.579 2.800,235.600 2.620,235.600 2.400 C 235.600 2.178,234.541 2.000,233.224 2.000 C 231.917 2.000,230.736 1.820,230.600 1.600 C 230.464 1.380,229.139 1.200,227.656 1.200 C 226.063 1.200,224.760 1.000,224.470 0.710 C 223.987 0.227,187.904 -0.120,179.100 0.274 M222.000 36.992 C 227.926 37.881,233.532 38.918,240.400 40.396 C 241.170 40.562,242.610 40.963,243.600 41.289 C 244.590 41.615,246.750 42.289,248.400 42.788 C 250.050 43.287,251.760 43.845,252.200 44.027 C 252.640 44.210,253.810 44.622,254.800 44.942 C 257.486 45.811,264.601 48.676,267.936 50.231 C 269.550 50.984,270.934 51.600,271.011 51.600 C 271.157 51.600,279.510 56.082,282.100 57.550 C 282.925 58.017,284.270 58.779,285.089 59.243 C 297.703 66.386,320.774 86.383,327.124 95.678 C 327.470 96.185,327.866 96.690,328.003 96.800 C 328.140 96.910,329.970 99.268,332.070 102.039 C 334.169 104.811,336.551 107.781,337.362 108.639 C 338.878 110.243,340.000 112.119,340.000 113.049 C 340.000 113.339,340.360 114.211,340.800 114.988 C 342.046 117.187,342.989 118.829,344.252 121.000 C 345.897 123.826,350.934 134.465,352.206 137.800 C 353.332 140.752,353.758 141.830,354.382 143.300 C 354.592 143.795,355.335 146.000,356.033 148.200 C 356.731 150.400,357.446 152.560,357.621 153.000 C 357.796 153.440,358.031 154.250,358.142 154.800 C 358.253 155.350,358.549 156.520,358.799 157.400 C 365.590 181.311,366.242 212.319,360.463 236.600 C 360.254 237.480,359.959 238.830,359.809 239.600 C 359.658 240.370,359.386 241.360,359.205 241.800 C 359.023 242.240,358.661 243.500,358.400 244.600 C 358.139 245.700,357.784 246.960,357.611 247.400 C 357.437 247.840,356.881 249.550,356.376 251.200 C 355.870 252.850,355.308 254.371,355.128 254.580 C 354.948 254.789,354.800 255.286,354.800 255.685 C 354.800 256.084,354.641 256.723,354.447 257.105 C 354.252 257.487,353.916 258.250,353.700 258.800 C 353.484 259.350,353.112 260.250,352.873 260.800 C 352.635 261.350,351.692 263.600,350.779 265.800 C 349.263 269.451,345.415 277.187,343.267 280.900 C 342.790 281.725,342.023 283.066,341.562 283.879 C 334.961 295.537,318.777 315.090,309.000 323.221 C 308.340 323.770,306.557 325.271,305.037 326.558 C 301.650 329.426,291.277 337.200,290.422 337.511 C 290.080 337.636,288.775 338.427,287.522 339.269 C 286.269 340.111,285.127 340.800,284.984 340.800 C 284.841 340.800,284.246 341.139,283.662 341.553 C 278.910 344.922,262.966 352.379,254.800 355.051 C 253.810 355.375,252.640 355.788,252.200 355.968 C 251.322 356.327,247.229 357.597,244.400 358.388 C 243.410 358.665,242.240 359.029,241.800 359.197 C 241.360 359.365,240.010 359.713,238.800 359.971 C 237.590 360.228,235.880 360.596,235.000 360.787 C 233.457 361.123,230.571 361.696,226.800 362.416 C 213.758 364.905,190.383 365.097,175.600 362.837 C 169.824 361.954,161.436 360.177,156.800 358.854 C 156.030 358.634,154.950 358.337,154.400 358.194 C 153.850 358.050,153.040 357.791,152.600 357.618 C 152.160 357.444,150.000 356.731,147.800 356.033 C 145.600 355.335,143.440 354.610,143.000 354.422 C 142.560 354.234,141.570 353.851,140.800 353.570 C 134.151 351.145,120.977 344.792,117.538 342.353 C 116.954 341.939,116.388 341.600,116.279 341.600 C 115.268 341.600,98.823 330.334,97.600 328.804 C 97.490 328.666,96.990 328.273,96.488 327.931 C 92.971 325.528,80.303 313.380,76.545 308.806 C 75.915 308.040,74.882 306.870,74.249 306.206 C 71.882 303.725,61.600 289.626,61.600 288.861 C 61.600 288.644,61.459 288.407,61.287 288.333 C 60.537 288.014,53.325 275.103,50.935 269.800 C 48.015 263.324,47.600 262.361,47.600 262.063 C 47.600 261.891,47.240 261.005,46.800 260.094 C 46.360 259.184,46.000 258.196,46.000 257.899 C 46.000 257.603,45.853 257.189,45.672 256.980 C 45.334 256.587,42.632 248.330,41.229 243.400 C 39.280 236.554,37.865 229.267,36.524 219.171 C 35.611 212.295,35.481 186.367,36.330 180.600 C 38.449 166.218,39.900 159.821,43.678 148.200 C 44.536 145.560,45.434 142.950,45.673 142.400 C 46.131 141.344,46.705 139.929,47.213 138.600 C 48.607 134.951,55.089 121.352,55.983 120.200 C 56.153 119.980,56.742 118.990,57.290 118.000 C 57.838 117.010,58.672 115.520,59.143 114.688 C 59.615 113.856,60.000 112.989,60.000 112.760 C 60.000 112.239,62.339 108.805,63.243 108.000 C 63.802 107.502,66.373 104.135,71.801 96.795 C 74.791 92.752,84.919 82.157,90.000 77.758 C 90.990 76.901,92.070 75.920,92.400 75.578 C 92.978 74.978,97.725 71.114,101.010 68.568 C 102.765 67.208,114.681 59.200,114.950 59.200 C 115.042 59.200,116.262 58.507,117.659 57.660 C 119.057 56.814,122.720 54.846,125.800 53.287 C 130.893 50.709,132.471 49.968,136.800 48.117 C 140.359 46.595,141.535 46.137,143.400 45.545 C 144.280 45.265,145.171 44.893,145.380 44.718 C 145.589 44.543,146.086 44.400,146.485 44.400 C 146.884 44.400,147.523 44.238,147.905 44.041 C 148.287 43.844,149.950 43.277,151.600 42.782 C 153.250 42.286,155.410 41.615,156.400 41.289 C 158.367 40.642,158.679 40.570,166.000 39.070 C 184.049 35.373,205.830 34.564,222.000 36.992 M152.600 111.036 C 137.706 111.928,134.156 112.358,136.243 113.022 C 137.792 113.515,149.460 119.371,151.072 120.465 C 151.992 121.089,152.859 121.600,153.000 121.600 C 153.383 121.600,156.979 124.103,157.133 124.477 C 157.207 124.655,157.488 124.800,157.758 124.800 C 158.028 124.800,158.598 125.117,159.025 125.504 C 159.451 125.892,161.240 127.285,163.000 128.601 C 169.950 133.796,179.041 142.536,184.856 149.614 C 188.065 153.520,187.554 153.272,193.403 153.765 C 196.317 154.010,195.871 154.317,200.052 149.200 C 205.837 142.121,216.416 132.083,222.400 127.995 C 223.170 127.469,223.890 126.931,224.000 126.800 C 224.110 126.669,224.830 126.125,225.600 125.592 C 226.370 125.058,227.335 124.314,227.745 123.939 C 228.155 123.563,228.965 123.016,229.545 122.722 C 234.814 120.053,237.366 118.226,236.188 117.967 C 235.535 117.823,232.930 117.238,230.400 116.667 C 225.820 115.633,221.746 114.936,210.300 113.227 C 192.671 110.595,172.670 109.836,152.600 111.036 M86.327 128.877 C 84.528 132.603,84.209 134.025,84.233 138.200 C 84.316 152.572,96.821 162.071,111.337 158.788 C 115.214 157.912,116.602 157.652,119.800 157.202 C 122.896 156.767,125.251 156.419,130.500 155.619 C 138.400 154.416,151.500 153.208,156.700 153.203 C 158.075 153.201,159.200 153.054,159.200 152.875 C 159.200 152.569,157.465 150.997,152.734 147.014 C 150.155 144.843,144.539 140.802,144.100 140.801 C 143.825 140.801,143.600 140.620,143.600 140.400 C 143.600 140.180,143.407 140.000,143.172 140.000 C 142.937 140.000,141.992 139.483,141.072 138.852 C 138.754 137.259,129.147 132.639,126.000 131.603 C 124.570 131.133,123.040 130.596,122.600 130.410 C 121.051 129.757,120.184 129.489,118.500 129.146 C 117.565 128.956,115.945 128.610,114.900 128.379 C 109.947 127.281,107.886 127.105,97.976 126.935 L 87.353 126.753 86.327 128.877 M267.800 128.800 C 267.664 129.020,267.090 129.200,266.524 129.200 C 262.963 129.200,247.574 135.976,240.928 140.469 C 240.008 141.091,239.063 141.600,238.828 141.600 C 238.593 141.600,238.400 141.741,238.400 141.914 C 238.400 142.086,237.880 142.535,237.245 142.910 C 233.162 145.322,219.960 157.281,220.804 157.802 C 221.023 157.938,222.057 158.208,223.101 158.404 C 224.895 158.740,226.090 159.017,230.100 160.029 C 231.035 160.265,232.387 160.555,233.104 160.673 C 233.821 160.792,234.506 161.049,234.627 161.244 C 234.748 161.440,235.366 161.600,236.000 161.600 C 236.634 161.600,237.264 161.780,237.400 162.000 C 237.536 162.220,238.089 162.400,238.629 162.400 C 239.169 162.400,239.923 162.562,240.305 162.761 C 240.687 162.960,241.810 163.346,242.800 163.621 C 249.249 165.408,263.715 170.572,270.400 173.474 C 271.170 173.808,272.160 174.225,272.600 174.400 C 276.679 176.024,281.038 178.097,293.200 184.198 C 305.708 190.473,307.686 191.200,312.247 191.200 C 331.294 191.200,340.763 168.824,327.409 155.371 C 325.027 152.972,323.786 152.129,319.249 149.830 L 313.899 147.119 310.685 150.260 C 308.918 151.987,307.051 153.796,306.537 154.281 C 305.576 155.186,304.072 155.931,301.572 156.739 C 299.262 157.485,298.845 157.423,294.996 155.770 C 288.727 153.079,287.449 145.651,292.187 139.445 C 293.902 137.198,294.764 137.761,281.800 132.653 C 271.432 128.567,268.451 127.746,267.800 128.800 M150.737 175.396 C 150.630 175.504,148.215 175.785,145.371 176.022 C 142.527 176.258,139.300 176.530,138.200 176.626 C 135.223 176.885,129.672 177.593,127.400 178.003 C 126.300 178.201,124.320 178.551,123.000 178.780 C 116.119 179.974,113.955 180.535,111.372 181.794 C 107.917 183.478,105.243 185.774,103.269 188.752 C 101.839 190.908,101.513 191.528,100.400 194.200 C 97.954 200.071,100.437 210.324,105.567 215.534 C 111.427 221.486,117.493 222.869,129.013 220.880 C 136.093 219.658,140.319 219.077,145.772 218.576 C 149.573 218.226,149.565 218.231,152.641 214.400 C 154.142 212.530,155.596 210.768,155.871 210.485 C 156.147 210.202,156.687 209.437,157.072 208.785 C 157.457 208.133,157.914 207.600,158.086 207.600 C 158.259 207.600,158.400 207.330,158.400 207.000 C 158.400 206.670,158.535 206.399,158.700 206.398 C 158.865 206.397,159.630 205.408,160.400 204.200 C 161.170 202.992,161.935 202.003,162.100 202.002 C 162.265 202.001,162.400 201.809,162.400 201.577 C 162.400 201.344,162.911 200.489,163.536 199.677 C 164.160 198.864,165.645 196.791,166.836 195.068 C 168.026 193.345,169.181 191.725,169.401 191.468 C 169.622 191.211,170.785 189.560,171.985 187.800 C 173.186 186.040,174.394 184.368,174.670 184.085 C 174.946 183.802,175.487 183.037,175.872 182.385 C 176.257 181.733,176.714 181.200,176.886 181.200 C 177.059 181.200,177.200 180.964,177.200 180.675 C 177.200 180.387,177.536 179.791,177.946 179.350 C 179.229 177.973,179.648 176.933,179.092 176.510 C 177.922 175.619,151.550 174.583,150.737 175.396 M201.734 182.076 C 200.890 183.217,199.930 184.546,199.600 185.028 C 196.478 189.591,194.564 192.285,194.138 192.715 C 193.857 192.998,193.313 193.763,192.928 194.415 C 192.543 195.067,192.086 195.600,191.914 195.600 C 191.741 195.600,191.600 195.836,191.600 196.125 C 191.600 196.413,191.280 196.998,190.889 197.425 C 190.498 197.851,189.745 198.830,189.216 199.600 C 186.695 203.270,180.604 211.822,180.386 212.000 C 180.251 212.110,179.356 213.370,178.398 214.800 C 177.439 216.230,176.508 217.460,176.328 217.533 C 175.114 218.027,176.191 218.801,178.100 218.807 C 180.194 218.814,184.353 219.385,190.800 220.550 C 196.357 221.555,198.045 221.920,201.200 222.801 C 202.850 223.262,205.460 223.970,207.000 224.374 C 208.540 224.778,210.610 225.396,211.600 225.748 C 214.682 226.844,215.034 226.653,213.519 224.700 C 212.793 223.765,212.098 222.910,211.974 222.800 C 211.849 222.690,211.140 221.700,210.397 220.600 C 209.654 219.500,208.901 218.540,208.723 218.467 C 208.545 218.393,208.400 218.093,208.400 217.800 C 208.400 217.507,208.251 217.207,208.068 217.133 C 207.511 216.910,204.800 212.651,204.800 212.000 C 204.800 211.349,207.511 207.090,208.068 206.867 C 208.251 206.793,208.400 206.512,208.400 206.242 C 208.400 205.972,208.720 205.402,209.111 204.975 C 209.502 204.549,210.255 203.570,210.784 202.800 C 217.204 193.461,218.037 193.712,226.600 207.553 C 226.820 207.909,227.099 208.290,227.219 208.400 C 227.340 208.510,227.871 209.230,228.400 210.000 C 228.929 210.770,229.460 211.490,229.581 211.600 C 229.701 211.710,230.420 212.610,231.177 213.600 C 234.326 217.715,241.335 225.212,244.826 228.200 C 247.830 230.770,254.302 235.600,254.743 235.600 C 254.911 235.600,255.412 235.938,255.855 236.351 C 256.298 236.764,257.817 237.709,259.231 238.451 C 260.644 239.193,261.860 239.935,261.933 240.100 C 262.007 240.265,262.305 240.400,262.596 240.400 C 262.886 240.400,263.816 240.744,264.662 241.163 C 267.225 242.436,269.967 243.600,270.401 243.600 C 270.803 243.600,271.301 243.810,273.095 244.738 C 273.587 244.992,274.341 245.200,274.771 245.200 C 275.201 245.200,275.652 245.361,275.774 245.558 C 275.895 245.755,276.671 246.015,277.497 246.137 C 278.324 246.259,279.990 246.563,281.200 246.813 C 287.527 248.116,289.047 247.809,292.200 244.587 C 294.763 241.968,297.099 237.840,296.455 237.070 C 296.240 236.811,295.014 235.516,293.732 234.190 C 288.313 228.589,287.752 222.381,292.258 217.875 L 293.766 216.368 291.452 214.231 C 288.915 211.889,284.254 209.406,273.000 204.400 C 270.776 203.411,267.877 202.095,264.683 200.626 C 263.519 200.091,260.504 198.813,257.983 197.786 C 255.462 196.760,252.770 195.650,252.000 195.319 C 251.230 194.989,250.195 194.557,249.700 194.359 C 249.205 194.162,248.305 193.796,247.700 193.546 C 247.095 193.297,246.150 192.916,245.600 192.700 C 245.050 192.484,244.287 192.148,243.905 191.953 C 243.523 191.759,242.936 191.600,242.600 191.600 C 242.264 191.600,241.677 191.441,241.295 191.247 C 239.927 190.551,235.514 188.876,232.600 187.947 C 231.720 187.666,230.829 187.293,230.620 187.118 C 230.411 186.943,229.856 186.800,229.387 186.800 C 228.917 186.800,228.408 186.674,228.254 186.521 C 228.101 186.368,226.856 185.934,225.488 185.558 C 224.119 185.182,221.740 184.492,220.200 184.025 C 205.823 179.665,203.683 179.439,201.734 182.076 M150.600 246.252 C 141.867 253.262,136.113 256.847,126.400 261.334 C 125.190 261.893,123.300 262.641,122.200 262.996 C 121.100 263.350,119.840 263.791,119.400 263.975 C 118.689 264.272,117.923 264.497,114.500 265.413 C 111.530 266.208,114.986 276.959,119.774 281.819 C 125.251 287.377,129.669 288.473,142.107 287.360 C 159.852 285.772,179.507 287.057,190.416 290.519 C 191.397 290.830,193.010 291.308,194.000 291.581 C 194.990 291.854,196.113 292.240,196.495 292.439 C 196.877 292.638,197.464 292.800,197.800 292.800 C 198.136 292.800,198.723 292.963,199.105 293.163 C 199.487 293.363,200.700 293.794,201.800 294.121 C 204.010 294.779,211.020 297.532,214.312 299.035 C 215.473 299.566,216.503 300.000,216.600 300.000 C 216.697 300.000,217.727 300.427,218.888 300.949 C 224.498 303.472,225.633 303.762,229.800 303.740 C 249.261 303.641,258.720 281.708,245.226 267.971 C 242.540 265.236,240.610 264.109,232.700 260.655 C 229.410 259.218,226.857 258.146,225.300 257.546 C 224.805 257.356,223.995 257.038,223.500 256.839 C 223.005 256.640,221.520 256.083,220.200 255.600 C 218.880 255.117,217.440 254.584,217.000 254.415 C 200.589 248.121,177.083 243.986,157.800 244.001 L 153.400 244.004 150.600 246.252 " stroke="none" fill="#0c0c8c" fill-rule="evenodd"></path><path id="path3" d="M186.400 35.994 C 179.495 36.598,170.020 38.154,159.600 40.396 C 158.830 40.562,157.390 40.963,156.400 41.289 C 155.410 41.615,153.250 42.286,151.600 42.782 C 149.950 43.277,148.287 43.844,147.905 44.041 C 147.523 44.238,146.884 44.400,146.485 44.400 C 146.086 44.400,145.589 44.543,145.380 44.718 C 145.171 44.893,144.280 45.265,143.400 45.545 C 141.535 46.137,140.359 46.595,136.800 48.117 C 132.471 49.968,130.893 50.709,125.800 53.287 C 122.720 54.846,119.057 56.814,117.659 57.660 C 116.262 58.507,115.042 59.200,114.950 59.200 C 114.681 59.200,102.765 67.208,101.010 68.568 C 97.725 71.114,92.978 74.978,92.400 75.578 C 92.070 75.920,90.990 76.901,90.000 77.758 C 84.919 82.157,74.791 92.752,71.801 96.795 C 71.360 97.391,69.399 100.020,67.442 102.639 C 65.485 105.258,63.685 107.670,63.442 108.000 C 63.051 108.531,63.086 108.532,63.747 108.012 C 64.158 107.689,66.527 104.719,69.011 101.412 C 71.495 98.105,74.191 94.680,75.001 93.800 C 75.811 92.920,77.123 91.480,77.915 90.600 C 81.979 86.089,84.404 83.576,86.790 81.400 C 92.963 75.773,96.062 73.033,96.903 72.459 C 97.396 72.122,97.890 71.741,98.000 71.612 C 98.847 70.620,112.112 61.456,115.390 59.599 C 116.925 58.729,118.762 57.680,121.100 56.340 C 131.276 50.503,150.247 43.044,160.700 40.770 C 161.635 40.566,163.255 40.210,164.300 39.979 C 166.173 39.564,168.183 39.186,172.700 38.400 C 192.615 34.935,215.375 35.506,235.700 39.982 C 236.745 40.212,238.365 40.566,239.300 40.770 C 241.459 41.240,243.324 41.750,245.600 42.493 C 246.590 42.816,248.750 43.500,250.400 44.012 C 252.050 44.525,253.571 45.092,253.780 45.272 C 253.989 45.452,254.458 45.600,254.822 45.600 C 256.932 45.600,273.226 53.081,281.700 57.940 C 282.525 58.413,283.875 59.181,284.700 59.647 C 293.669 64.712,306.288 74.666,315.811 84.189 C 320.904 89.282,326.741 95.770,328.378 98.157 C 329.450 99.721,335.199 106.752,335.616 107.010 C 336.008 107.252,328.529 97.222,328.003 96.800 C 327.866 96.690,327.470 96.185,327.124 95.678 C 320.774 86.383,297.703 66.386,285.089 59.243 C 284.270 58.779,282.925 58.017,282.100 57.550 C 279.510 56.082,271.157 51.600,271.011 51.600 C 270.934 51.600,269.550 50.984,267.936 50.231 C 264.601 48.676,257.486 45.811,254.800 44.942 C 253.810 44.622,252.640 44.210,252.200 44.027 C 251.760 43.845,250.050 43.287,248.400 42.788 C 246.750 42.289,244.590 41.615,243.600 41.289 C 241.637 40.644,241.345 40.576,234.000 39.068 C 219.636 36.120,199.690 34.832,186.400 35.994 M153.979 110.154 C 153.774 110.360,145.262 111.056,137.800 111.477 C 134.249 111.678,133.558 111.972,135.021 112.663 C 135.560 112.917,135.900 112.962,135.777 112.763 C 135.654 112.563,135.608 112.386,135.676 112.369 C 137.943 111.793,162.326 110.434,170.800 110.412 C 182.954 110.379,198.781 111.507,210.300 113.227 C 221.633 114.919,226.262 115.711,230.400 116.665 C 232.710 117.198,235.181 117.740,235.892 117.868 C 236.603 117.997,237.087 118.259,236.968 118.451 C 236.850 118.643,236.943 118.800,237.176 118.800 C 237.650 118.800,237.772 117.606,237.300 117.590 C 237.135 117.584,235.470 117.222,233.600 116.785 C 227.554 115.373,226.859 115.240,218.800 113.948 C 214.643 113.282,211.615 112.836,208.400 112.416 C 206.750 112.201,203.960 111.832,202.200 111.596 C 200.440 111.360,196.840 110.985,194.200 110.763 C 188.942 110.320,154.335 109.796,153.979 110.154 M58.254 116.173 C 57.894 116.723,57.600 117.272,57.600 117.394 C 57.600 117.516,57.131 118.359,56.557 119.268 C 54.661 122.272,49.254 133.451,47.159 138.700 C 46.962 139.195,46.596 140.095,46.346 140.700 C 46.097 141.305,45.746 142.160,45.566 142.600 C 45.129 143.667,42.251 152.531,41.605 154.800 C 39.246 163.080,38.049 168.937,36.330 180.600 C 34.050 196.075,36.425 226.522,41.229 243.400 C 42.632 248.330,45.334 256.587,45.672 256.980 C 45.853 257.189,46.000 257.603,46.000 257.899 C 46.000 258.196,46.360 259.184,46.800 260.094 C 47.240 261.005,47.600 261.891,47.600 262.063 C 47.600 262.361,48.015 263.324,50.935 269.800 C 53.325 275.103,60.537 288.014,61.287 288.333 C 61.459 288.407,61.600 288.644,61.600 288.861 C 61.600 289.626,71.882 303.725,74.249 306.206 C 74.882 306.870,75.915 308.040,76.545 308.806 C 80.303 313.380,92.971 325.528,96.488 327.931 C 96.990 328.273,97.490 328.666,97.600 328.804 C 98.823 330.334,115.268 341.600,116.279 341.600 C 116.388 341.600,116.954 341.939,117.538 342.353 C 120.977 344.792,134.151 351.145,140.800 353.570 C 141.570 353.851,142.560 354.234,143.000 354.422 C 143.440 354.610,145.600 355.335,147.800 356.033 C 150.000 356.731,152.160 357.444,152.600 357.618 C 153.040 357.791,153.850 358.050,154.400 358.194 C 154.950 358.337,156.030 358.634,156.800 358.854 C 159.157 359.526,161.958 360.193,166.500 361.163 C 177.475 363.506,186.466 364.382,199.658 364.392 C 210.733 364.401,219.896 363.733,226.800 362.416 C 230.571 361.696,233.457 361.123,235.000 360.787 C 235.880 360.596,237.590 360.228,238.800 359.971 C 240.010 359.713,241.360 359.365,241.800 359.197 C 242.240 359.029,243.410 358.665,244.400 358.388 C 247.229 357.597,251.322 356.327,252.200 355.968 C 252.640 355.788,253.810 355.375,254.800 355.051 C 262.966 352.379,278.910 344.922,283.662 341.553 C 284.246 341.139,284.841 340.800,284.984 340.800 C 285.127 340.800,286.269 340.111,287.522 339.269 C 288.775 338.427,290.080 337.636,290.422 337.511 C 291.277 337.200,301.650 329.426,305.037 326.558 C 306.557 325.271,308.340 323.770,309.000 323.221 C 318.777 315.090,334.961 295.537,341.562 283.879 C 342.023 283.066,342.790 281.725,343.267 280.900 C 345.415 277.187,349.263 269.451,350.779 265.800 C 351.692 263.600,352.635 261.350,352.873 260.800 C 353.112 260.250,353.484 259.350,353.700 258.800 C 353.916 258.250,354.252 257.487,354.447 257.105 C 354.641 256.723,354.800 256.084,354.800 255.685 C 354.800 255.286,354.948 254.789,355.128 254.580 C 355.308 254.371,355.870 252.850,356.376 251.200 C 356.881 249.550,357.437 247.840,357.611 247.400 C 357.784 246.960,358.139 245.700,358.400 244.600 C 358.661 243.500,359.023 242.240,359.205 241.800 C 359.386 241.360,359.658 240.370,359.809 239.600 C 359.959 238.830,360.254 237.480,360.463 236.600 C 366.242 212.319,365.590 181.311,358.799 157.400 C 358.549 156.520,358.253 155.350,358.142 154.800 C 358.031 154.250,357.796 153.440,357.621 153.000 C 357.446 152.560,356.731 150.400,356.033 148.200 C 355.335 146.000,354.568 143.750,354.329 143.200 C 353.845 142.090,353.734 141.807,352.206 137.800 C 350.756 133.999,345.775 123.582,343.914 120.459 C 343.081 119.062,342.396 117.802,342.391 117.659 C 342.377 117.252,340.819 115.360,340.809 115.738 C 340.800 116.075,342.018 118.418,342.400 118.800 C 342.801 119.201,346.720 126.911,349.109 132.000 C 351.340 136.750,355.718 148.277,356.858 152.400 C 357.071 153.170,357.427 154.430,357.649 155.200 C 357.871 155.970,358.221 157.275,358.427 158.100 C 358.632 158.925,358.990 160.365,359.222 161.300 C 360.563 166.702,361.938 174.032,362.430 178.400 C 363.434 187.303,363.778 193.088,363.785 201.200 C 363.797 212.573,362.969 221.166,360.781 232.400 C 360.588 233.390,360.321 234.830,360.188 235.600 C 360.055 236.370,359.790 237.360,359.600 237.800 C 359.410 238.240,359.167 239.140,359.060 239.800 C 358.953 240.460,358.671 241.675,358.433 242.500 C 357.825 244.606,357.261 246.581,356.835 248.100 C 356.056 250.872,352.049 261.616,350.382 265.400 C 349.898 266.500,349.146 268.210,348.712 269.200 C 347.819 271.238,347.532 271.814,345.317 276.000 C 342.596 281.143,340.505 284.653,337.065 289.852 C 332.252 297.125,329.363 300.981,323.765 307.600 C 322.024 309.659,310.603 321.122,308.200 323.223 C 302.854 327.897,293.961 334.620,289.200 337.587 C 286.074 339.535,285.049 340.145,282.355 341.662 C 281.830 341.958,281.310 342.290,281.200 342.400 C 280.572 343.028,273.323 346.701,266.600 349.798 C 259.703 352.976,245.558 357.869,239.400 359.208 C 238.520 359.400,236.990 359.749,236.000 359.985 C 235.010 360.220,233.210 360.597,232.000 360.822 C 230.790 361.047,228.900 361.414,227.800 361.638 C 213.693 364.510,186.177 364.496,171.600 361.610 C 168.402 360.977,166.067 360.495,163.800 360.000 C 162.700 359.761,161.260 359.470,160.600 359.355 C 159.940 359.240,159.040 358.998,158.600 358.818 C 158.160 358.638,156.990 358.264,156.000 357.987 C 152.083 356.890,142.386 353.603,138.600 352.089 C 133.171 349.919,121.758 344.625,121.200 344.018 C 121.090 343.898,120.570 343.558,120.045 343.262 C 119.520 342.967,118.490 342.388,117.757 341.976 C 116.299 341.157,115.119 340.425,110.003 337.165 C 108.135 335.974,106.335 334.785,106.003 334.522 C 105.671 334.260,104.230 333.180,102.800 332.122 C 101.370 331.065,99.930 329.986,99.600 329.725 C 88.356 320.815,79.910 312.562,72.681 303.425 C 71.626 302.091,70.542 300.730,70.272 300.400 C 66.943 296.331,58.063 282.774,56.125 278.800 C 55.749 278.030,55.331 277.310,55.196 277.200 C 54.665 276.766,49.970 266.497,47.561 260.500 C 47.363 260.005,47.032 259.195,46.826 258.700 C 46.621 258.205,46.224 257.080,45.945 256.200 C 45.665 255.320,45.293 254.429,45.118 254.220 C 44.943 254.011,44.800 253.437,44.800 252.944 C 44.800 252.451,44.641 251.949,44.448 251.830 C 44.254 251.710,43.997 251.204,43.876 250.706 C 43.755 250.208,43.463 249.125,43.228 248.300 C 42.993 247.475,42.620 246.170,42.400 245.400 C 41.328 241.649,41.119 240.886,40.752 239.400 C 37.503 226.252,36.200 214.568,36.200 198.600 C 36.200 183.489,37.406 173.352,40.782 160.100 C 40.992 159.275,41.276 158.060,41.412 157.400 C 41.549 156.740,41.806 155.840,41.985 155.400 C 42.163 154.960,42.530 153.790,42.801 152.800 C 43.391 150.642,43.959 148.886,44.420 147.800 C 44.607 147.360,45.022 146.190,45.343 145.200 C 47.335 139.048,52.890 126.680,56.392 120.600 C 58.709 116.577,59.252 115.519,59.086 115.353 C 58.988 115.255,58.614 115.624,58.254 116.173 M91.321 126.698 C 93.477 126.771,96.897 126.770,98.921 126.698 C 100.944 126.625,99.180 126.566,95.000 126.567 C 90.820 126.567,89.164 126.626,91.321 126.698 M86.082 128.079 C 79.763 138.396,85.736 154.494,97.409 158.608 C 102.615 160.443,105.201 160.476,114.000 158.818 C 116.834 158.284,120.281 157.711,123.800 157.189 C 125.340 156.960,127.770 156.599,129.200 156.387 C 138.007 155.078,152.269 153.723,158.300 153.622 C 159.276 153.605,159.592 153.425,159.568 152.900 C 159.550 152.482,159.456 152.401,159.335 152.700 C 159.204 153.024,158.264 153.201,156.667 153.203 C 151.496 153.208,138.378 154.419,130.500 155.619 C 125.251 156.419,122.896 156.767,119.800 157.202 C 116.602 157.652,115.214 157.912,111.337 158.788 C 101.838 160.936,92.738 157.566,87.597 149.996 C 83.399 143.814,82.997 133.816,86.716 128.088 C 87.042 127.586,87.215 127.081,87.100 126.966 C 86.985 126.852,86.527 127.352,86.082 128.079 M270.800 128.381 C 272.952 129.054,292.630 136.931,293.113 137.314 C 293.518 137.634,293.434 137.939,292.713 138.760 L 291.800 139.800 292.900 138.830 C 294.643 137.294,294.401 137.107,286.700 134.032 C 282.685 132.429,278.950 130.931,278.400 130.705 C 276.859 130.070,275.480 129.522,274.600 129.196 C 274.160 129.033,273.297 128.697,272.681 128.450 C 272.066 128.202,271.166 128.015,270.681 128.034 C 269.860 128.066,269.868 128.090,270.800 128.381 M203.178 145.500 L 201.800 147.000 203.300 145.622 C 204.125 144.863,204.800 144.188,204.800 144.122 C 204.800 143.816,204.462 144.104,203.178 145.500 M181.600 146.200 C 182.346 146.970,183.047 147.600,183.157 147.600 C 183.267 147.600,182.746 146.970,182.000 146.200 C 181.254 145.430,180.553 144.800,180.443 144.800 C 180.333 144.800,180.854 145.430,181.600 146.200 M289.301 147.000 C 289.305 147.880,289.387 148.193,289.483 147.695 C 289.579 147.198,289.575 146.478,289.475 146.095 C 289.375 145.713,289.296 146.120,289.301 147.000 M310.591 150.100 L 307.400 153.400 310.649 150.260 L 313.899 147.119 319.249 149.830 C 323.786 152.129,325.027 152.972,327.409 155.371 C 340.763 168.824,331.294 191.200,312.247 191.200 C 307.686 191.200,305.708 190.473,293.200 184.198 C 281.038 178.097,276.679 176.024,272.600 174.400 C 272.160 174.225,271.170 173.808,270.400 173.474 C 263.715 170.572,249.249 165.408,242.800 163.621 C 241.810 163.346,240.687 162.960,240.305 162.761 C 239.923 162.562,239.169 162.400,238.629 162.400 C 238.089 162.400,237.536 162.220,237.400 162.000 C 237.264 161.780,236.634 161.600,236.000 161.600 C 235.366 161.600,234.736 161.420,234.600 161.200 C 234.464 160.980,233.971 160.800,233.505 160.800 C 233.038 160.800,232.104 160.632,231.428 160.427 C 229.726 159.910,225.980 158.974,222.100 158.096 C 221.165 157.884,220.400 157.863,220.400 158.048 C 220.400 158.233,220.805 158.467,221.300 158.568 C 221.795 158.669,222.740 158.863,223.400 159.000 C 224.060 159.137,225.140 159.340,225.800 159.451 C 226.460 159.563,227.360 159.809,227.800 159.997 C 228.240 160.186,229.050 160.428,229.600 160.537 C 230.458 160.706,233.679 161.547,238.200 162.783 C 245.057 164.658,259.782 169.599,263.802 171.376 C 265.567 172.156,266.984 172.748,268.200 173.214 C 268.640 173.382,269.853 173.898,270.896 174.360 C 271.938 174.822,272.878 175.200,272.984 175.200 C 273.187 175.200,275.838 176.379,280.800 178.676 C 282.450 179.439,288.570 182.439,294.400 185.341 C 307.336 191.781,306.814 191.600,312.400 191.600 C 326.167 191.600,336.111 180.066,333.814 166.759 C 332.377 158.428,328.784 154.121,319.049 149.062 C 313.670 146.265,314.383 146.178,310.591 150.100 M226.575 151.300 L 225.400 152.600 226.700 151.425 C 227.415 150.779,228.000 150.194,228.000 150.125 C 228.000 149.816,227.670 150.088,226.575 151.300 M188.000 153.530 C 188.735 153.976,195.920 154.455,196.152 154.074 C 196.244 153.923,195.032 153.752,193.459 153.693 C 191.887 153.635,189.880 153.492,189.000 153.377 C 187.946 153.238,187.605 153.290,188.000 153.530 M297.621 156.821 C 298.155 157.160,301.142 157.381,300.767 157.055 C 300.675 156.975,299.799 156.808,298.821 156.682 C 297.670 156.535,297.246 156.584,297.621 156.821 M147.533 175.001 C 147.422 175.111,145.277 175.390,142.766 175.621 C 134.284 176.400,125.893 177.523,120.600 178.586 C 119.940 178.718,118.410 179.020,117.200 179.256 C 95.197 183.551,92.365 213.160,113.200 221.090 C 116.700 222.422,121.225 223.006,123.818 222.460 C 125.018 222.207,126.990 221.820,128.200 221.600 C 129.410 221.380,131.345 221.024,132.500 220.809 C 133.655 220.594,135.320 220.331,136.200 220.226 C 137.080 220.120,139.407 219.844,141.371 219.613 C 143.335 219.381,145.030 219.104,145.137 218.996 C 145.791 218.342,137.809 219.286,128.003 221.021 C 110.627 224.097,98.847 214.930,99.706 199.000 C 99.937 194.704,100.615 192.755,103.269 188.752 C 105.243 185.774,107.917 183.478,111.372 181.794 C 113.955 180.535,116.119 179.974,123.000 178.780 C 124.320 178.551,126.300 178.201,127.400 178.003 C 129.672 177.593,135.223 176.885,138.200 176.626 C 139.300 176.530,142.540 176.215,145.400 175.926 C 151.430 175.316,170.015 175.265,175.496 175.843 C 179.742 176.290,179.964 175.822,175.791 175.219 C 173.000 174.816,147.912 174.622,147.533 175.001 M202.918 180.161 C 202.535 180.622,202.477 180.775,202.791 180.500 C 203.772 179.638,209.679 180.834,220.200 184.025 C 221.740 184.492,224.119 185.182,225.488 185.558 C 226.856 185.934,228.101 186.368,228.254 186.521 C 228.408 186.674,228.917 186.800,229.387 186.800 C 229.856 186.800,230.411 186.943,230.620 187.118 C 230.829 187.293,231.720 187.666,232.600 187.947 C 235.514 188.876,239.927 190.551,241.295 191.247 C 241.677 191.441,242.264 191.600,242.600 191.600 C 242.936 191.600,243.523 191.759,243.905 191.953 C 244.659 192.337,245.315 192.609,249.700 194.359 C 250.195 194.557,251.230 194.989,252.000 195.319 C 252.770 195.650,255.462 196.760,257.983 197.786 C 260.504 198.813,263.519 200.091,264.683 200.626 C 267.877 202.095,270.776 203.411,273.000 204.400 C 284.283 209.419,288.913 211.887,291.469 214.247 C 293.885 216.478,294.491 216.902,293.549 215.700 C 292.499 214.361,289.397 211.609,288.933 211.604 C 288.677 211.602,288.407 211.459,288.333 211.287 C 288.200 210.974,281.124 207.420,276.600 205.393 C 261.738 198.734,256.474 196.433,254.200 195.600 C 253.760 195.439,252.860 195.079,252.200 194.800 C 251.540 194.521,250.595 194.137,250.100 193.946 C 249.605 193.756,248.705 193.396,248.100 193.146 C 243.167 191.113,235.812 188.390,228.800 186.003 C 227.235 185.470,221.249 183.696,218.600 182.979 C 217.280 182.623,215.570 182.154,214.800 181.939 C 214.030 181.723,212.770 181.391,212.000 181.200 C 211.230 181.009,209.880 180.656,209.000 180.416 C 205.003 179.324,203.659 179.268,202.918 180.161 M184.400 206.000 C 183.930 206.660,183.636 207.200,183.746 207.200 C 183.856 207.200,184.330 206.660,184.800 206.000 C 185.270 205.340,185.564 204.800,185.454 204.800 C 185.344 204.800,184.870 205.340,184.400 206.000 M147.400 218.400 L 145.800 218.686 147.476 218.743 C 148.398 218.774,149.264 218.620,149.400 218.400 C 149.536 218.180,149.502 218.026,149.324 218.057 C 149.146 218.088,148.280 218.242,147.400 218.400 M176.452 218.985 C 176.554 219.087,178.429 219.361,180.618 219.594 C 182.808 219.827,185.500 220.180,186.600 220.377 C 189.391 220.878,193.071 221.567,195.200 221.986 C 196.190 222.181,197.769 222.468,198.710 222.624 C 199.650 222.780,200.516 223.064,200.633 223.254 C 200.751 223.444,201.366 223.600,202.000 223.600 C 202.634 223.600,203.264 223.780,203.400 224.000 C 203.536 224.220,204.078 224.400,204.605 224.400 C 205.131 224.400,205.976 224.561,206.481 224.758 C 206.987 224.955,208.210 225.336,209.200 225.604 C 210.190 225.872,211.360 226.224,211.800 226.386 C 214.219 227.276,215.218 227.495,215.415 227.176 C 215.535 226.982,215.130 226.708,214.516 226.568 C 213.902 226.427,212.590 226.042,211.600 225.712 C 210.610 225.382,208.540 224.780,207.000 224.375 C 205.460 223.971,202.850 223.262,201.200 222.801 C 197.227 221.691,191.762 220.615,183.800 219.375 C 180.315 218.832,176.074 218.607,176.452 218.985 M295.975 239.249 C 294.402 242.333,292.000 245.193,289.559 246.891 C 289.031 247.258,288.841 247.567,289.135 247.579 C 290.706 247.641,297.964 238.631,297.066 237.733 C 296.951 237.617,296.459 238.299,295.975 239.249 M156.400 243.843 C 178.433 244.707,188.769 246.107,203.600 250.235 C 208.093 251.485,214.888 253.605,217.000 254.415 C 217.440 254.584,218.880 255.117,220.200 255.600 C 223.039 256.639,223.832 256.941,225.300 257.546 C 225.905 257.796,226.805 258.162,227.300 258.359 C 228.304 258.760,230.435 259.666,232.700 260.655 C 240.610 264.109,242.540 265.236,245.226 267.971 C 258.720 281.708,249.261 303.641,229.800 303.740 C 225.633 303.762,224.498 303.472,218.888 300.949 C 217.727 300.427,216.697 300.000,216.600 300.000 C 216.503 300.000,215.473 299.566,214.312 299.035 C 211.020 297.532,204.010 294.779,201.800 294.121 C 200.700 293.794,199.487 293.363,199.105 293.163 C 198.723 292.963,198.136 292.800,197.800 292.800 C 197.464 292.800,196.877 292.638,196.495 292.439 C 196.113 292.240,194.990 291.854,194.000 291.581 C 193.010 291.308,191.397 290.830,190.416 290.519 C 179.507 287.057,159.852 285.772,142.107 287.360 C 132.174 288.249,130.003 288.050,125.307 285.820 C 118.574 282.623,114.612 276.598,113.589 268.000 L 113.280 265.400 113.381 268.600 C 113.561 274.281,115.194 277.973,119.400 282.208 C 125.429 288.278,128.811 288.964,146.200 287.640 C 149.060 287.423,152.930 287.134,154.800 287.000 C 159.237 286.680,173.802 287.747,179.500 288.809 C 186.667 290.144,186.266 290.058,191.000 291.279 C 191.880 291.506,192.960 291.828,193.400 291.996 C 193.840 292.164,197.067 293.237,200.572 294.382 C 204.077 295.527,207.677 296.801,208.572 297.214 C 209.467 297.627,211.820 298.627,213.800 299.437 C 215.780 300.246,219.110 301.638,221.200 302.529 L 225.000 304.149 230.265 304.131 L 235.531 304.113 239.265 302.290 C 247.792 298.126,251.802 291.887,251.787 282.800 C 251.771 272.711,247.262 266.552,236.300 261.650 C 227.786 257.842,228.060 257.957,222.600 255.919 C 217.133 253.879,209.176 251.206,206.019 250.349 C 203.131 249.564,201.914 249.230,198.800 248.367 C 198.030 248.154,196.500 247.796,195.400 247.572 C 194.300 247.348,192.590 246.984,191.600 246.761 C 183.048 244.843,174.844 244.020,162.600 243.851 C 157.540 243.782,154.750 243.778,156.400 243.843 " stroke="none" fill="#4a668a" fill-rule="evenodd"></path><path id="path4" d="M335.659 107.517 C 338.119 110.410,339.584 112.702,339.593 113.676 C 339.597 114.048,339.768 114.457,339.974 114.584 C 340.353 114.818,340.065 113.562,339.289 111.595 C 339.071 111.043,337.683 109.333,336.205 107.795 L 333.518 105.000 335.659 107.517 M63.158 108.532 C 61.006 110.624,58.982 114.400,60.013 114.400 C 60.226 114.400,60.400 114.121,60.400 113.780 C 60.400 112.815,61.508 110.904,63.069 109.176 C 64.627 107.451,64.683 107.049,63.158 108.532 M134.163 112.741 C 134.279 112.928,135.235 113.405,136.287 113.800 C 137.339 114.195,139.433 115.133,140.941 115.885 C 142.449 116.636,143.767 117.167,143.870 117.063 C 143.974 116.959,142.290 116.040,140.129 115.021 C 137.968 114.001,135.887 112.994,135.505 112.783 C 134.645 112.308,133.881 112.284,134.163 112.741 M144.400 117.365 C 144.400 117.456,146.065 118.446,148.100 119.565 C 155.133 123.430,155.386 123.596,162.959 129.316 C 170.731 135.187,178.866 143.200,186.120 152.129 C 186.956 153.158,187.856 153.997,188.120 153.994 C 188.433 153.990,188.456 153.886,188.187 153.694 C 187.959 153.532,185.686 150.970,183.134 148.000 C 172.459 135.573,160.246 125.530,147.463 118.669 C 144.715 117.194,144.400 117.060,144.400 117.365 M232.800 121.109 C 221.761 127.803,210.495 137.315,202.370 146.800 C 200.956 148.450,199.708 149.890,199.595 150.000 C 198.602 150.966,195.921 154.491,196.275 154.363 C 196.526 154.274,197.761 152.940,199.020 151.400 C 204.504 144.691,207.321 141.725,213.800 135.845 C 221.112 129.207,229.726 122.973,236.100 119.705 C 237.180 119.152,237.494 118.798,236.900 118.802 C 236.735 118.804,234.890 119.842,232.800 121.109 M87.495 126.244 C 87.369 126.448,89.866 126.548,93.331 126.479 C 104.357 126.259,116.067 127.739,123.000 130.230 C 123.522 130.418,123.661 130.382,123.400 130.128 C 122.891 129.633,118.715 128.452,114.600 127.638 C 113.500 127.421,111.610 127.036,110.400 126.783 C 107.686 126.217,87.803 125.749,87.495 126.244 M269.200 127.864 C 267.541 128.121,264.739 128.846,262.200 129.674 C 260.880 130.105,259.549 130.539,259.243 130.638 C 258.936 130.738,258.773 130.907,258.880 131.014 C 258.988 131.121,259.868 130.927,260.838 130.583 C 263.402 129.673,268.260 128.400,269.169 128.400 C 269.600 128.400,270.064 128.220,270.200 128.000 C 270.336 127.780,270.392 127.625,270.324 127.654 C 270.256 127.684,269.750 127.779,269.200 127.864 M124.400 130.800 C 124.730 131.013,125.270 131.188,125.600 131.188 C 126.133 131.188,126.133 131.145,125.600 130.800 C 125.270 130.587,124.730 130.412,124.400 130.412 C 123.867 130.412,123.867 130.455,124.400 130.800 M253.983 132.740 C 248.076 135.329,234.991 143.048,233.600 144.764 C 233.490 144.900,232.411 145.819,231.201 146.805 C 225.874 151.153,220.011 156.730,220.004 157.457 C 220.002 157.709,221.305 156.558,222.900 154.900 C 227.838 149.766,239.440 140.543,242.800 139.080 C 243.130 138.936,244.300 138.267,245.400 137.592 C 247.768 136.141,253.817 133.203,256.500 132.201 C 257.545 131.811,258.400 131.426,258.400 131.346 C 258.400 130.962,257.112 131.369,253.983 132.740 M133.769 134.635 C 142.756 139.143,151.332 145.076,158.120 151.481 C 159.176 152.478,160.126 153.208,160.230 153.104 C 160.424 152.909,156.277 149.140,152.400 145.988 C 151.190 145.005,150.140 144.065,150.067 143.900 C 149.993 143.735,149.770 143.600,149.570 143.600 C 149.370 143.600,148.408 142.990,147.432 142.246 C 143.810 139.480,131.676 132.732,130.490 132.822 C 130.330 132.834,131.806 133.650,133.769 134.635 M292.619 139.232 C 286.123 146.422,290.347 156.662,299.773 156.573 C 303.613 156.537,304.906 155.775,310.000 150.549 L 314.200 146.240 309.598 150.627 C 303.620 156.327,301.189 157.271,296.440 155.737 C 289.953 153.642,287.751 145.312,292.317 140.140 C 294.092 138.131,294.508 137.600,294.309 137.600 C 294.190 137.600,293.430 138.334,292.619 139.232 M179.147 176.297 C 179.659 177.259,179.119 178.161,172.190 187.900 C 170.742 189.935,169.702 191.598,169.879 191.597 C 170.055 191.595,170.868 190.560,171.684 189.297 C 172.500 188.033,173.524 186.550,173.959 186.000 C 179.027 179.592,180.473 176.888,179.335 175.949 C 178.731 175.451,178.714 175.484,179.147 176.297 M202.974 179.506 C 202.392 179.907,199.768 183.791,200.301 183.461 C 200.695 183.218,203.720 179.192,203.499 179.206 C 203.445 179.209,203.208 179.344,202.974 179.506 M198.503 185.549 C 197.896 186.402,196.410 188.500,195.200 190.212 C 193.990 191.925,192.458 194.063,191.795 194.963 C 189.928 197.500,183.098 207.169,181.598 209.400 C 180.858 210.500,180.137 211.490,179.996 211.600 C 179.855 211.710,178.943 212.948,177.970 214.351 C 176.996 215.753,175.950 217.243,175.644 217.661 C 175.338 218.079,175.179 218.512,175.290 218.623 C 175.401 218.734,175.815 218.324,176.211 217.712 C 177.055 216.408,187.860 201.117,189.999 198.200 C 192.094 195.345,199.339 185.152,199.720 184.526 C 200.439 183.343,199.527 184.109,198.503 185.549 M166.638 195.700 C 165.211 197.735,163.890 199.580,163.701 199.800 C 163.512 200.020,162.422 201.550,161.279 203.200 C 156.766 209.715,155.398 211.507,151.280 216.300 C 150.099 217.675,149.320 218.800,149.550 218.800 C 149.780 218.800,151.156 217.315,152.607 215.500 C 154.058 213.685,155.772 211.550,156.414 210.755 C 158.802 207.804,169.777 192.000,169.439 192.000 C 169.325 192.000,168.064 193.665,166.638 195.700 M214.687 197.700 C 213.935 198.635,212.576 200.480,211.667 201.800 C 210.757 203.120,208.933 205.730,207.613 207.600 C 204.350 212.223,204.267 211.877,210.804 220.800 C 211.691 222.010,212.997 223.850,213.708 224.889 C 214.419 225.928,215.250 226.877,215.557 226.998 C 215.958 227.157,216.003 227.076,215.720 226.709 C 214.179 224.714,210.337 219.454,209.212 217.800 C 208.465 216.700,207.742 215.710,207.607 215.600 C 204.771 213.291,205.072 211.481,209.207 206.000 C 209.788 205.230,211.412 202.980,212.815 201.000 C 217.405 194.526,216.298 193.938,226.400 208.203 C 234.510 219.655,244.182 229.286,255.000 236.686 C 257.935 238.693,264.468 242.008,268.600 243.587 C 269.040 243.755,269.850 244.085,270.400 244.320 C 272.943 245.407,277.046 246.580,281.800 247.580 C 284.223 248.090,288.658 248.275,289.050 247.884 C 289.206 247.728,288.147 247.600,286.697 247.600 C 283.258 247.600,276.245 246.172,273.000 244.812 C 272.560 244.627,270.670 243.893,268.800 243.181 C 254.094 237.578,238.387 224.638,227.800 209.404 C 226.920 208.138,226.012 206.899,225.782 206.651 C 225.553 206.403,224.203 204.490,222.784 202.400 C 217.971 195.313,217.040 194.773,214.687 197.700 M292.321 217.976 C 289.473 220.929,288.670 225.447,290.320 229.241 C 291.058 230.938,297.200 238.053,297.200 237.211 C 297.200 237.007,295.947 235.544,294.416 233.961 C 288.909 228.265,288.332 222.109,292.920 218.009 C 293.624 217.381,294.107 216.774,293.994 216.661 C 293.881 216.548,293.128 217.140,292.321 217.976 M151.141 244.909 C 143.043 252.075,130.072 259.780,121.345 262.610 C 120.275 262.956,119.040 263.397,118.600 263.589 C 118.160 263.781,117.260 264.064,116.600 264.218 C 115.940 264.372,115.601 264.574,115.847 264.665 C 117.161 265.154,128.613 260.392,135.964 256.301 C 138.878 254.679,145.492 250.118,148.571 247.608 C 150.347 246.159,152.245 244.665,152.789 244.287 C 153.389 243.870,153.546 243.604,153.189 243.609 C 152.865 243.614,151.944 244.199,151.141 244.909 M113.400 265.200 C 113.108 265.673,113.499 265.673,114.600 265.200 C 115.371 264.869,115.369 264.855,114.524 264.828 C 114.042 264.813,113.536 264.980,113.400 265.200 " stroke="none" fill="#7e7bc2" fill-rule="evenodd"></path></g></svg>